/* XPM */
static char *closed_door[] = {
/* columns rows colors chars-per-pixel */
"18 32 167 2 ",
"   c #3F261B",
".  c #3C241C",
"X  c #3D241D",
"o  c #3D251D",
"O  c #3F261D",
"+  c #3C251F",
"@  c #3F261E",
"#  c #3F2721",
"$  c #4D2700",
"%  c #4E2800",
"&  c #4F2800",
"*  c #4F2900",
"=  c #502900",
"-  c #522A00",
";  c #552B00",
":  c #552C00",
">  c #562C00",
",  c #572C00",
"<  c #572D01",
"1  c #582D00",
"2  c #592D00",
"3  c #592E01",
"4  c #5A2E00",
"5  c #5B2F00",
"6  c #5C2F00",
"7  c #592F05",
"8  c #5A2F05",
"9  c #592F06",
"0  c #5A2F06",
"q  c #533000",
"w  c #5E3000",
"e  c #5F3100",
"r  c #472813",
"t  c #4A2910",
"y  c #4D2A11",
"u  c #40261B",
"i  c #41261C",
"p  c #41271D",
"a  c #482A1A",
"s  c #573318",
"d  c #5A3619",
"f  c #603100",
"g  c #623200",
"h  c #643300",
"j  c #653400",
"k  c #653500",
"l  c #653401",
"z  c #663400",
"x  c #673500",
"c  c #683500",
"v  c #693600",
"b  c #693601",
"n  c #693701",
"m  c #6A3700",
"M  c #6B3700",
"N  c #6C3700",
"B  c #683606",
"V  c #603901",
"C  c #693A01",
"Z  c #6C3800",
"A  c #6D3800",
"S  c #6D3801",
"D  c #6E3800",
"F  c #6E3900",
"G  c #6F3900",
"H  c #6F3801",
"J  c #6F3901",
"K  c #6D3802",
"L  c #6F3A03",
"P  c #6A3807",
"I  c #703900",
"U  c #703901",
"Y  c #703A00",
"T  c #703A01",
"R  c #713A01",
"E  c #713A02",
"W  c #713B02",
"Q  c #733C05",
"!  c #733C06",
"~  c #723C07",
"^  c #733C07",
"/  c #733F07",
"(  c #743D06",
")  c #753D06",
"_  c #753D07",
"`  c #763D07",
"'  c #763E07",
"]  c #773E07",
"[  c #763E08",
"{  c #773E08",
"}  c #773E09",
"|  c #743D0A",
" . c #773F0B",
".. c #783F0A",
"X. c #633610",
"o. c #6B3A11",
"O. c #64391F",
"+. c #743F15",
"@. c #753F15",
"#. c #753F16",
"$. c #653B22",
"%. c #663A22",
"&. c #663A23",
"*. c #673B23",
"=. c #673C25",
"-. c #5E4017",
";. c #634004",
":. c #6C4005",
">. c #72440A",
",. c #794009",
"<. c #7A400A",
"1. c #78400D",
"2. c #79400D",
"3. c #7B410C",
"4. c #7A410E",
"5. c #7C410C",
"6. c #7C420C",
"7. c #7C420D",
"8. c #7D430F",
"9. c #7E430F",
"0. c #744E09",
"q. c #7E570E",
"w. c #67471B",
"e. c #754015",
"r. c #764016",
"t. c #7F4410",
"y. c #7C441A",
"u. c #7F461C",
"i. c #714526",
"p. c #824614",
"a. c #834614",
"s. c #834714",
"d. c #834615",
"f. c #834715",
"g. c #8D4C16",
"h. c #864918",
"j. c #874918",
"k. c #92531B",
"l. c #95531E",
"z. c #94541C",
"x. c #97591E",
"c. c #956C17",
"v. c #91681F",
"b. c #98691C",
"n. c #9B6C1C",
"m. c #9B701A",
"M. c #9D711B",
"N. c #A3761F",
"B. c #82542B",
"V. c #995B20",
"C. c #9A5C21",
"Z. c #9D5E23",
"A. c #A55C2D",
"S. c #9F6025",
"D. c #A6602E",
"F. c #A9602E",
"G. c #A67821",
"H. c #A67926",
"J. c #AF6630",
"K. c #B36C31",
"L. c #B56D31",
"P. c #B56D32",
"I. c #B66C32",
"U. c #BA7033",
"Y. c #BB7033",
"T. c #BE7433",
"R. c None",
/* pixels */
"# i u u u u u u                 O R.",
"=.y.#.r.r.r.r.r.r.r.r.r.r.r.#.r.X.O ",
"B.T.U.U.U.U.U.U.P.P.K.P.J.D.D.A.u.i ",
"i.S.Z.Z.Z.Z.Z.Z.Z.V.V.x.z.l.k.g.o.O ",
"*.{ J J U U J J J J J J J J J J 9 O ",
"*.] c c c c c c J c c c c x c J 9 + ",
"*.] & & = = = 3 J = & & & & < C 9 O ",
"*.] & h N J c 2.{ & g J J c { 5.9 O ",
"*.^ $ x J J J 9.,.& k J J J 2.5.9 . ",
"*.] & x J J J 8.,.& k J J J 5.5.9 . ",
"*.] & x J J J 9.,.& k J J J 5.5.9 + ",
"*.] & x J J J 9.{ & k J J J 5.5.9   ",
"*.] & x J J J 2.,.& g J J J 5.5.9 . ",
"*.^ & x J J J 9.2.= k J J J 5.5.9 . ",
"*.^ < | ] J J 9.,.& k J J J 2.5.9 . ",
"*.^ C ^ 8.] J 2.,.& x J J J 2.8.9 . ",
"d v.H.:.U p.f.j.{ g  .f.s.f.h...9 + ",
"w.N.N.q.c U U U J U U U U W U U 9   ",
"w.n.m.0.c g , 3 N 6 , , , , 3 N 9 . ",
"s n.n.V 3 3 e P ^ = 3 6 g 6 B ( 9   ",
"O.b.c.q 3 N H 8...= h U U H 8.8.9 O ",
"$.>.;.x N U H 8...= h U U U ..5.9 . ",
"$.^ $ x U U N 8...= h U U N 8.5.9   ",
"$.] & x U U U 8...= h U U N 5.5.9 . ",
"=.] & x J J J 9...= h U U U ..5.9 . ",
"$.] & x J J J 2...= h U U N 8.5.9 . ",
"*.] & x J J J 9...= h U U U 8.5.9 + ",
"*.] & x J J J 9. .= h U U N ..5.3 . ",
"*.{ $ k J J J 9...= h U J J 8.2.9 + ",
"&.{ w t.s.s.s.h.{ g  .f.a.a.h...9 O ",
"$.^ c J J J J C N c N C J J c J 9   ",
"a t t t t t t t t t t t t t t t r + "
};
