/* XPM */
static char *coin[] = {
/* columns rows colors chars-per-pixel */
"19 32 85 1 ",
"  c #78591D",
". c #564B25",
"X c #5F5326",
"o c #6B5F30",
"O c #7D6424",
"+ c #7B662E",
"@ c #7B6C2F",
"# c #8B661D",
"$ c #8D6A1F",
"% c #9F6F17",
"& c #946C1D",
"* c #996D1B",
"= c #9F701C",
"- c #A97516",
"; c #A47319",
": c #AA7619",
"> c #A6781D",
", c #AF7818",
"< c #B27A16",
"1 c #BB7E16",
"2 c #B67B18",
"3 c #826525",
"4 c #817026",
"5 c #8D7225",
"6 c #84732E",
"7 c #917323",
"8 c #957A26",
"9 c #937B2B",
"0 c #9D7928",
"q c #826E32",
"w c #857532",
"e c #887731",
"r c #8A7933",
"t c #847338",
"y c #8B7B3B",
"u c #917C39",
"i c #A67B23",
"p c #AC7D21",
"a c #BE8015",
"s c #9B832B",
"d c #9D882E",
"f c #948230",
"g c #93823D",
"h c #AA8225",
"j c #A48B2A",
"k c #AD882A",
"l c #B08625",
"z c #B38E2A",
"x c #AB932F",
"c c #BA972B",
"v c #B2992F",
"b c #BD9E2F",
"n c #AB9130",
"m c #B69C32",
"M c #BA9E31",
"N c #BCA233",
"B c #C48314",
"V c #C98514",
"C c #CE8813",
"Z c #D28B13",
"A c #DA8F12",
"S c #DF9111",
"D c #C2A633",
"F c #C8A631",
"G c #C5AA34",
"H c #CAAB32",
"J c #CEB133",
"K c #D5B634",
"L c #DCBC35",
"P c #E0BF36",
"I c #E4C336",
"U c #E9C737",
"Y c #EFCC36",
"T c #F1CE36",
"R c #958442",
"E c #9C8A43",
"W c #A08E46",
"Q c #A49146",
"! c #AB9A4B",
"~ c #B19D4D",
"^ c #B8A34E",
"/ c #B7A351",
"( c #BCA751",
") c #C0AB53",
"_ c None",
/* pixels */
"___________________",
"____~u+.Xqrwg______",
"___q;*OjHIILNfR____",
"__q128PTTTYTTUxy___",
"_E;C5ITTYYYYTTUdE__",
"_3A;DTUTYTTTTTTLw__",
"!*S5ITTTYKmDITTTd(_",
"E;CsTTUTGinGNLTTxE_",
"R,1nTTTUlzUTINUTNg_",
"y1<NTTTKpFTTUNUTHy_",
"@a-DTTTKiHTTYNUTKt_",
"ta:DTTTK>HTTYNITLr_",
"t1:DTYTKiHTTTNITPe_",
"@a,NTTTKpFTTUDUTIw_",
"t1<NTYTKpFTUDLYYIe_",
"y2<MTTTKpFPMLTYTIw_",
"y<2MTYYLiFGNTYYTIe_",
"R,1mTYTPiGTGGYYTIe_",
"E;1nTTYIhDTYGNUTIw_",
"W%VjTYYUpMYTTmITIe_",
"!*CsYYYUicYYTNLTIe_",
"/&A8YYYUkzYYTNLTPe_",
")#A7UYYYzkYYTDITKw_",
"_3A5PYYYM0ITYNITKr_",
"_OA&JTTTI8sKDGTTGg_",
"_qV;NTYYTLmNJTTTmE_",
"_W:BsYYTYTTTTTYY9(_",
"__3Z&KTYTYYYTYTGy__",
"__Q#<8ITYYYYTTKe___",
"___Q3 4KIIIIKv6^___",
"_____Ro@wwrwrg_____",
"___________________"
};
