/* XPM */
static char *coin_bg[] = {
/* columns rows colors chars-per-pixel */
"32 32 191 2 ",
"   c #5B2E18",
".  c #69361C",
"X  c #6C391C",
"o  c #63351E",
"O  c #713E1C",
"+  c #4B2C23",
"@  c #502625",
"#  c #532A25",
"$  c #5D2F21",
"%  c #562E28",
"&  c #563026",
"*  c #5A3124",
"=  c #5B3B26",
"-  c #5D3A29",
";  c #623D25",
":  c #613F29",
">  c #73411E",
",  c #5F452C",
"<  c #654125",
"1  c #6B4224",
"2  c #6E4926",
"3  c #664229",
"4  c #64492F",
"5  c #795827",
"6  c #74532B",
"7  c #795728",
"8  c #775528",
"9  c #654F30",
"0  c #684E30",
"q  c #6C5A33",
"w  c #695532",
"e  c #745F34",
"r  c #675527",
"t  c #796422",
"y  c #706034",
"u  c #746A36",
"i  c #7D7B3C",
"p  c #777839",
"a  c #9F580F",
"s  c #9C5609",
"d  c #966E1F",
"f  c #986D1E",
"g  c #91641E",
"h  c #A9600C",
"j  c #BB6D02",
"k  c #BD720A",
"l  c #AA7618",
"z  c #A67B1D",
"x  c #AD7D1B",
"c  c #B37714",
"v  c #BA7710",
"b  c #B17814",
"n  c #835F25",
"m  c #866226",
"M  c #8A6D22",
"N  c #986F23",
"B  c #946F26",
"V  c #86752C",
"C  c #967024",
"Z  c #9D7324",
"A  c #977A27",
"S  c #937128",
"D  c #9A7926",
"F  c #817E3C",
"G  c #A47521",
"H  c #A57E22",
"J  c #61962F",
"K  c #669C31",
"L  c #689F33",
"P  c #6C9F3C",
"I  c #6BA334",
"U  c #6EA936",
"Y  c #6EA23C",
"T  c #73A536",
"R  c #71AC37",
"E  c #71A53D",
"W  c #79A738",
"Q  c #73AA3D",
"!  c #75B339",
"~  c #78B63A",
"^  c #7BBC3C",
"/  c #7EC13D",
"(  c #76A646",
")  c #76AF41",
"_  c #77B041",
"`  c #7AB342",
"'  c #7EBB44",
"]  c #9F8C2F",
"[  c #99822A",
"{  c #84833D",
"}  c #8F813A",
"|  c #87893F",
" . c #8B8A3E",
".. c #9C8D31",
"X. c #AB882C",
"o. c #AF912F",
"O. c #B69F2A",
"+. c #B39627",
"@. c #A38D31",
"#. c #A99633",
"$. c #B59C33",
"%. c #B99F33",
"&. c #83AC3D",
"*. c #82BC3E",
"=. c #83B13C",
"-. c #BDA235",
";. c #B9A837",
":. c #B6A436",
">. c #C09C2D",
",. c #CDA72D",
"<. c #D0A72D",
"1. c #D0AC2E",
"2. c #D7B12F",
"3. c #C1A734",
"4. c #C4A935",
"5. c #CCAD33",
"6. c #C7AC39",
"7. c #D3AC30",
"8. c #C5B036",
"9. c #CFB133",
"0. c #CEB838",
"q. c #C2B23C",
"w. c #D4B233",
"e. c #D6B835",
"r. c #DCBC35",
"t. c #D5B738",
"y. c #D4BE3A",
"u. c #E0BB31",
"i. c #81C43F",
"p. c #83C83F",
"a. c #DDC235",
"s. c #DDC339",
"d. c #EAC52D",
"f. c #E4C336",
"g. c #EDCA36",
"h. c #E1C53A",
"j. c #E5CC3C",
"k. c #E8CA38",
"l. c #F1CD36",
"z. c #F6D236",
"x. c #FAD536",
"c. c #FDDA36",
"v. c #FAD638",
"b. c #F6DB3A",
"n. c #FEDB39",
"m. c #F4DA36",
"M. c #FEE337",
"N. c #FFE33A",
"B. c #FFEA3C",
"V. c #FFF33D",
"C. c #828140",
"Z. c #898D41",
"A. c #8C9242",
"S. c #8D9A43",
"D. c #8F9848",
"F. c #929D46",
"G. c #8DA343",
"H. c #94A445",
"J. c #99AF47",
"K. c #9AAB49",
"L. c #96AB48",
"P. c #81BD45",
"I. c #8BBD41",
"U. c #97B346",
"Y. c #9EB646",
"T. c #96B847",
"R. c #9DB34A",
"E. c #9BB849",
"W. c #83C344",
"Q. c #8CC342",
"!. c #85CB41",
"~. c #88CF42",
"^. c #86C548",
"/. c #8BCC4A",
"(. c #91C345",
"). c #98C347",
"_. c #95CC46",
"`. c #98C847",
"'. c #9DC449",
"]. c #9BCA49",
"[. c #8BD443",
"{. c #8ED945",
"}. c #8ED14B",
"|. c #91DC46",
" X c #91D54D",
".X c #94D94E",
"XX c #9FD24A",
"oX c #8AC651",
"OX c #A3C94C",
"+X c #A9D84F",
"@X c #A3D64B",
/* pixels */
"( Y Q ` Q Y ! E Y E ` P.' Q Q ) E P.^././.' ' P.` ` Y Q Y Y Q ( ",
"K K / ~.i.I Q ^ ^ ~ I K I ~.R K ~ / i./ ^ I I I ! K I / !./ ~ I ",
"P.I I i.U ^ !.~.!.! W I.].OXY.L.J.E.)._.W T ~ ^ ! L ! W.~.{./ ' ",
"W.W.R R K I !.!.I.Q.).J.} 3 + = 3 : - C.U.&.T I I R I ~ ^ / i.Q ",
"^.!.! I ~ ^ ^ ^ Q.+XC.*   < O.k.x.l.+.; i OXI.*.~.! I I U I ! Y ",
"/.U ^ ^ !.!.^ ^ (.D.o h V B.M.z.l.g.n.o.; u OXQ./ ^ I U I U R Y ",
"E R / ^ ^ !.!.^ T.& a M j.n.g.g.c.c.l.l.a.* H.(.^ / ^ !.p.I I _ ",
"Y ! !.!.^ / ^ U L.* k ..B.g.l.v.e.$.f.c.n.m e '.p./ / / / ^ U Y ",
"_ U ! !.!./ p.^ F.X b ;.n.g.n.,.m @.:.e.c.<.3 './ / ! ^ ~ I R P.",
"Q I ! i.! U !.!.Z.X z y.x.x.s.g 1.V.f.$.l.x.3 L.^ ~ I K R K ^ .X",
"' / !.I ! ~.~ I | X z h.z.n.5.N g.x.x.6.f.c.6 C.I U U I ~ / [.^.",
"Q ~ I K K I K K { X H j.l.n.1.N f.z.z.6.r.M.6 i K K ! ^ / {.{.P.",
"Y K I I J K K I } X X.h.l.c.1.N f.z.v.3.r.B.7 F ^ / ^ / ^ / [.P.",
"E R W.!.^ / ~ I  .. z j.z.c.w.Z f.x.c.4.u.B.7 F / / / ' / ~ R Q ",
"_ U ! !.p.p.p./  .. z s.z.c.w.G f.M.4.6.z.n.8 P / / ! ^ ! I U W.",
") K ! !.! U !.p. .X z s.z.c.7.G u.6.4.z.z.n.> | ^ ^ I I U I ~ .X",
"' / !.I ~ ~.^ I Z.. x s.z.c.w.Z r.] g.n.g.N.2  .I U U I ! / [.^.",
"Q ^ I J I I K K A.X x y.z.c.w.N l.k.@.f.v.M.< F.K I ! ^ / {.{.W.",
"Y I K K J K K K Z.X x 0.v.v.r.C r.N.r.@.f.N.< K.~ ~ ^ ~ ! ^ [.W.",
"P K I R I K U I { > b 6.n.v.e.N u.v.N.-.5.N.< K.! ! I I I K I Y ",
"Y K / [./ I ! ^ A.> b :.n.z.h.Z 2.n.n.%.7.b.< H.R K I i.p.^ ! Y ",
"' L I i.U ^ !.!.S.> v #.N.z.k.Z 7.n.n.3.t.m.< R.! I ! / ~.{./ P.",
"^.i.R R K I !.!.S.1 k ] N.l.n.S X.V.c.-.f.m.< H.I R I ~ ^ / p.Q ",
"^.W.! I ^ ^ ^ ^ G.1 j [ B.g.n.e.r #.%.3.x.c.3 R.~.! I I U I ! Y ",
"}.U ^ ^ !.!.^ ^ G.3 j A b.l.g.c.e.@.6.z.z.d.- U./ ^ I U I R U Q ",
"E U / / / p.!./ G.* s l q.N.g.g.v.M.c.g.N.n 0 T.^ ^ ^ !.i.I I _ ",
"Y ! W.p./ i.^ I *.w $ s [ B.x.g.l.l.l.N.>.& R.Q.!.!./ / / ~ I Q ",
"! U ! !.!./ p.^ Q.`.p #   t x.c.c.z.u.D = F.XXQ./ ^ ~ ^ ~ I R W.",
"Q I ~ / ! U !.!.T *.`.K.4 @ @ # @ @ # @ A.@X_.!.' ~ I K R K ^ .X",
"' / !.I ! !.^ I U L T &.p y 9 y q q 4 3 Q.I.^ ~ I U U I ! i.[.^.",
"I ^ I K I I K K ! R I K I ! I R R !.L I I K ! I J I ! ^ ^ {.{.^ ",
"( Y Y Y Y Y Y Y ' ^.}.P.P.}.P.E Q Q ' Q ) Y /.W.' ' ' ^.' ^. XoX"
};
