/* XPM */
static char *grass[] = {
/* columns rows colors chars-per-pixel */
"32 32 37 1 ",
"  c #679E32",
". c #689F32",
"X c #69A033",
"o c #6AA233",
"O c #6BA334",
"+ c #6BA434",
"@ c #6CA635",
"# c #6DA735",
"$ c #6DA835",
"% c #6FA936",
"& c #6FAB36",
"* c #70AB36",
"= c #72AE37",
"- c #73AF38",
"; c #73B038",
": c #74B138",
"> c #75B339",
", c #76B53A",
"< c #78B73A",
"1 c #78B83B",
"2 c #7ABB3B",
"3 c #7ABB3C",
"4 c #7BBC3C",
"5 c #7CBD3C",
"6 c #7DBE3D",
"7 c #7DBF3D",
"8 c #7EC03D",
"9 c #7FC23E",
"0 c #80C33E",
"q c #80C43E",
"w c #82C53F",
"e c #83C840",
"r c #85CA40",
"t c #86CB41",
"y c #86CC41",
"u c #88CF42",
"i c #8AD243",
/* pixels */
"  @;@o*ooo=,,%O%@35ew3,<;-OOO+O ",
"oo2w4%:22,O+%0-@,5882%+@-++884,+",
",@%5*4www,@:23%-8w48@%,,;+,5ey5<",
"58:=O*ww55,%232354ww@+++%*@,448@",
"88:%<2555t=<,ww555554333w,%+-%-o",
"e=84ww55255w55888eeee55442%=@*%O",
"@-558ww8=2=wte8=-48ut834444w5@O%",
"o:0w854=,=,5et:58wet8-:4we484,=O",
"==,ww0w58855554w3%0w;5e33433,+;4",
"O@,8,=w5=<222555%2,48eee33++;+3i",
",40%,w2@*@o*%58084,43342+-%O<3u8",
"@:@.ooo.==@o+:==-8=%++;+++;24ii8",
".o+ooooo,2e35t,%;%2%%+e3324348y5",
"o=5w22<%<=45wy-88we84-238e4343-%",
"==,ww0w58854554w1%8e;8w554322%;4",
"O@,5,-w5=,223555%3,48ee042++%+4u",
"<30*1e1@*++*%8q084334333O%%%14i8",
"+<+ X+XX--+++:***w*%++;%++;14ii5",
" XXX  XX:3e440<+%-3%**e411,334e4",
"  +*+X*++@:11*O*+,488<3,;;++@+%+",
"XX404*;13<X+*q*%,4883++%-O+484<+",
"<+*4*3qeq,%;14*;8e39**,,;+<4ei4<",
"40;;+*qe84:*143454e9++++***1434*",
"08;*13485e*118e548494113e:%%%O-O",
"e*840e44458e48808eeee54843%%%%*+",
"+-448ee4*1-qee4**48ut834443e4%+*",
"O;00484*3*35ee;008et8-,5ee4541*+",
"*-<ee0e48844484q3-8q;88444111@;4",
"++,01-88*3<11843*3<48eee11%+%%4y",
"138*<04+*@+*%5qe85113141@**+35i8",
"+<+XX+OX;*%++:***8**++,+O+:35uu8",
"       X14e14y1+**,+*+e4<33448i8"
};
