/* XPM */
static char *looking_down[] = {
/* columns rows colors chars-per-pixel */
"32 32 155 2 ",
"   c #020202",
".  c #0C0C0C",
"X  c #0E0A03",
"o  c #190501",
"O  c #130A04",
"+  c #120B0B",
"@  c #190C0A",
"#  c #1B1205",
"$  c #121112",
"%  c #191414",
"&  c #1C1C1C",
"*  c #220501",
"=  c #310905",
"-  c #3D0A01",
";  c #231807",
":  c #2C160C",
">  c #311D09",
",  c #201817",
"<  c #3A1515",
"1  c #2F2009",
"2  c #322209",
"3  c #3D2A0B",
"4  c #251F20",
"5  c #2F2E2F",
"6  c #262627",
"7  c #353535",
"8  c #3B3A3A",
"9  c #570C00",
"0  c #580E06",
"q  c #791C0B",
"w  c #6E1C11",
"e  c #432D0C",
"r  c #4B330D",
"t  c #422D12",
"y  c #543710",
"u  c #442A27",
"i  c #442C28",
"p  c #662D25",
"a  c #6F3933",
"s  c #5F4111",
"d  c #604212",
"f  c #684A1E",
"g  c #6F4C15",
"h  c #744F15",
"j  c #775218",
"k  c #775B30",
"l  c #434242",
"z  c #464846",
"x  c #4C4C4C",
"c  c #524543",
"v  c #544E4C",
"b  c #545353",
"n  c #595759",
"m  c #5C5C5C",
"M  c #5D5555",
"N  c #604A46",
"B  c #7A4A44",
"V  c #70504C",
"C  c #725E42",
"Z  c #785755",
"A  c #7A6446",
"S  c #736252",
"D  c #636463",
"F  c #6A6866",
"G  c #6A6B6B",
"H  c #7F6B69",
"J  c #747373",
"K  c #7B7A7B",
"L  c #8A1301",
"P  c #9A1B04",
"I  c #A51801",
"U  c #BD1C01",
"Y  c #B31A04",
"T  c #97210B",
"R  c #9B2C1E",
"E  c #A82B1E",
"W  c #A22411",
"Q  c #862C21",
"!  c #A23527",
"~  c #CC1C01",
"^  c #C51C00",
"/  c #DD1F00",
"(  c #C4311E",
")  c #C5382A",
"_  c #805717",
"`  c #865C18",
"'  c #A16E1C",
"]  c #AE771E",
"[  c #A7721C",
"{  c #B97E1F",
"}  c #9F6F21",
"|  c #9F7023",
" . c #B27D26",
".. c #924D47",
"X. c #865551",
"o. c #9D5E57",
"O. c #A7544A",
"+. c #86625F",
"@. c #816764",
"#. c #9A6B67",
"$. c #8E716F",
"%. c #827E7F",
"&. c #957F7D",
"*. c #A07D78",
"=. c #BF8220",
"-. c #C08321",
";. c #CC8C24",
":. c #C08628",
">. c #C68923",
",. c #D18F24",
"<. c #D69225",
"1. c #E59C27",
"2. c #EA9F27",
"3. c #E99F29",
"4. c #ECA127",
"5. c #ECA128",
"6. c #F0A429",
"7. c #C6827B",
"8. c #848484",
"9. c #8E8180",
"0. c #888788",
"q. c #8D8C8C",
"w. c #949494",
"e. c #989696",
"r. c #9B9B9A",
"t. c #A19FA1",
"y. c #A3A3A3",
"u. c #A8A7A8",
"i. c #ACACAC",
"p. c #B0AFAF",
"a. c #B0AFB0",
"s. c #B4B4B4",
"d. c #B4B8B9",
"f. c #BBBCBC",
"g. c #BAB3B1",
"h. c #CCACA9",
"j. c #CBBFBE",
"k. c #DCB7B2",
"l. c #BFC0C1",
"z. c #C3C4C4",
"x. c #CDCDCD",
"c. c #D1CCCE",
"v. c #CFD0CF",
"b. c #D3D3D3",
"n. c #DBD0D0",
"m. c #D6D8D7",
"M. c #DBDBDB",
"N. c #E2DFDE",
"B. c #DFE0DF",
"V. c #E3E3E3",
"C. c #EEEEEE",
"Z. c #EFF3F4",
"A. c #F4F4F4",
"S. c #FFFEFF",
"D. c None",
/* pixels */
"D.D.D.D.D.D.D.D.D.D.D.D.D.D.D.D.D.D.D.D.D.D.D.D.D.D.D.D.D.D.D.D.",
"D.D.D.D.D.D.D.D.D.D.D.D.D.D.D.D.D.D.D.D.D.D.D.D.D.D.D.D.D.D.D.D.",
"D.D.D.D.D.D.D.D.D.D.D.D.D.u c c D.D.D.D.D.D.D.D.D.D.D.D.D.D.D.D.",
"D.D.D.D.D.D.D.D.D.D.D.D.+ a o.X.< D.D.D.D.D.D.D.D.D.D.D.D.D.D.D.",
"D.D.D.D.D.D.D.D.D.D.D.D.% K d.u.l D.D.D.D.D.D.D.D.D.D.D.D.D.D.D.",
"D.D.D.D.D.D.D.D.D.D.D.D.+ &.N.n.Z D.D.D.D.D.D.D.D.D.D.D.D.D.D.D.",
"D.D.D.D.D.D.D.D.D.D.D.D.@ Q ) ) w $ D.D.D.D.D.D.D.D.D.D.D.D.D.D.",
"D.D.D.D.D.D.D.D.D.D.z F c @.7.7.@.n D n l D.D.D.D.D.D.D.D.D.D.D.",
"D.D.D.D.D.D.D.D.x F q.i.y.H h.k.$.y.v.s.q.J x D.D.D.D.D.D.D.D.D.",
"D.D.D.D.D.D.D.x %.z.A.S.Z.#.E ! ..x.S.S.C.s.w.z D.D.D.D.D.D.D.D.",
"D.D.D.D.D.D.& K s.S.S.S.C.B.j.j.N.V.A.S.S.A.t.%.D.D.D.D.D.D.D.D.",
"D.D.D.D.D.D.& w.y.A.S.S.C.x.f.l.f.x.A.S.S.x.t.G X D.D.D.D.D.D.D.",
"D.D.D.D.D.D.. K y.u.v.A.S.C.m.b.b.V.C.c.i.w.y.m . D.D.D.D.D.D.D.",
"D.D.D.D.D.D.D.0.u.t.w.w.u.i.i.s.u.r.w.w.r.u.l.J D.D.D.D.D.D.D.D.",
"D.D.D.D.D.D.D.J M.z.f.u.r.e.w.e.e.r.i.s.z.m.b.b D.D.D.D.D.D.D.D.",
"D.D.D.D.D.D.D.7 f.M.M.x.f.b.v.x.b.b.z.v.M.M.y.& D.D.D.D.D.D.D.D.",
"D.D.D.D.D.D.D.D.b l.B.i.x x.M.m.m.m.m w.B.u.5 D.D.D.D.D.D.D.D.D.",
"D.D.D.D.D.D.D.D.  8 i.s.l z.M.m.m.b.n q.0.&     D.D.D.D.D.D.D.D.",
"D.D.D.D.D.D.D.      % m F g.*.O.#.e.D x &         D.D.D.D.D.D.D.",
"D.D.D.D.D.D.D.    . 6 v % % : 0 = . @ i x 6 & . D.D.D.D.D.D.D.D.",
"D.D.D.D.D.D.D.$ x G q.V L 9 o o o - L B d.u.J l D.D.D.D.D.D.D.D.",
"D.D.D.D.D.D.D.D.K i.N.&.Y / ^ U ^ ~ ~ X.V.b.0.7 D.D.D.D.D.D.D.D.",
"D.D.D.D.D.D.D.D.l J M u W T P I P q R p l G z D.D.D.D.D.D.D.D.D.",
"D.D.D.D.D.D.D.D.D.D.O t S C f > y h A k 3 D.D.D.D.D.D.D.D.D.D.D.",
"D.D.D.D.D.D.D.D.D.r ' >.| | >.e ` ;. .;.;.g : D.D.D.D.D.D.D.D.D.",
"D.D.D.D.D.D.D.D.d ,.4.4.5.<.j X 2 ' 1.6.5.4.] > D.D.D.D.D.D.D.D.",
"D.D.D.D.D.D.D.O ' 5.1.4.=.e D.D.D.O j 4.4.4.4.s D.D.D.D.D.D.D.D.",
"D.D.D.D.D.D.D.D.s ;.1.=.e D.D.D.D.D.# j =.;.[ 2 D.D.D.D.D.D.D.D.",
"D.D.D.D.D.D.D.D.D.3 r ; D.D.D.D.D.D.D.D.; 2 # D.D.D.D.D.D.D.D.D.",
"D.D.D.D.D.D.D.D.D.D.D.D.D.D.D.D.D.D.D.D.D.D.D.D.D.D.D.D.D.D.D.D.",
"D.D.D.D.D.D.D.D.D.D.D.D.D.D.D.D.D.D.D.D.D.D.D.D.D.D.D.D.D.D.D.D.",
"D.D.D.D.D.D.D.D.D.D.D.D.D.D.D.D.D.D.D.D.D.D.D.D.D.D.D.D.D.D.D.D."
};
