/* XPM */
static char *looking_down_bg[] = {
/* columns rows colors chars-per-pixel */
"31 32 187 2 ",
"   c #020202",
".  c gray4",
"X  c #0E0504",
"o  c #160B0A",
"O  c #0C1206",
"+  c #1B1B1B",
"@  c #181709",
"#  c #2D0801",
"$  c #340B03",
"%  c #380905",
"&  c #3D1A14",
"*  c #2A1C09",
"=  c #352C0D",
"-  c #362205",
";  c #34281B",
":  c #2B3818",
">  c #2D240A",
",  c #272627",
"<  c #312E2E",
"1  c #382D2C",
"2  c #2B3323",
"3  c #363F2D",
"4  c #3B3838",
"5  c #430A00",
"6  c #560B00",
"7  c #701F06",
"8  c #47390F",
"9  c #4B3A10",
"0  c #5D3B13",
"q  c #57221B",
"w  c #4B3B39",
"e  c #4F362A",
"r  c #7F3526",
"t  c #773B34",
"y  c #554112",
"u  c #5B4513",
"i  c #4A591C",
"p  c #535E1E",
"a  c #464514",
"s  c #6D4B14",
"d  c #734F13",
"f  c #7F5B18",
"g  c #6F631D",
"h  c #41443E",
"j  c #574236",
"k  c #6F572D",
"l  c #496E24",
"z  c #536B26",
"x  c #4C7526",
"c  c #547F29",
"v  c #577A26",
"b  c #52623B",
"n  c #5B6B30",
"m  c #587932",
"M  c #616C21",
"N  c #6E7C24",
"B  c #444242",
"V  c #4F4F4E",
"C  c #474A4B",
"Z  c #4A5547",
"A  c #5D564C",
"S  c #5B5958",
"D  c #655656",
"F  c #5A654C",
"G  c #596B48",
"H  c #586748",
"J  c #636C4D",
"K  c #61724F",
"L  c #756D53",
"P  c #6A725C",
"I  c #6A6A6A",
"U  c #666667",
"Y  c #737474",
"T  c #7B7B7B",
"R  c #797271",
"E  c #6F776F",
"W  c #8B0900",
"Q  c #960800",
"!  c #871903",
"~  c #862815",
"^  c #93261A",
"/  c #983829",
"(  c #8F3C35",
")  c #85382D",
"_  c #CE0E00",
"`  c #CA1B00",
"'  c #D51801",
"]  c #845B16",
"[  c #92671C",
"{  c #A9731D",
"}  c #A7721D",
"|  c #89423B",
" . c #B54538",
".. c #896F35",
"X. c #B67D20",
"o. c #80504B",
"O. c #9A5148",
"+. c #A8564D",
"@. c #8C7340",
"#. c #817B7C",
"$. c #8E7D7D",
"%. c #C05A4E",
"&. c #D65C50",
"*. c #EA7468",
"=. c #58852C",
"-. c #5F922E",
";. c #5C8534",
":. c #648A2C",
">. c #688C2C",
",. c #61942F",
"<. c #69932E",
"1. c #618E34",
"2. c #649633",
"3. c #659B31",
"4. c #699F33",
"5. c #679836",
"6. c #759B30",
"7. c #748926",
"8. c #6BA334",
"9. c #6EA936",
"0. c #6EA33B",
"q. c #71AC37",
"w. c #72AF38",
"e. c #77A133",
"r. c #75B339",
"t. c #78B63B",
"y. c #7BBC3C",
"u. c #77B83A",
"i. c #7EC13E",
"p. c #75AB41",
"a. c #7AB243",
"s. c #7C807F",
"d. c #BD8221",
"f. c #D49224",
"g. c #D99423",
"h. c #E09926",
"j. c #EDA227",
"k. c #F3A629",
"l. c #FDAD2A",
"z. c #F7A92A",
"x. c #FFB02C",
"c. c #81C43E",
"v. c #84C83F",
"b. c #80BD45",
"n. c #83C740",
"m. c #85CB41",
"M. c #88CE42",
"N. c #8AD243",
"B. c #848384",
"V. c #8B8B8B",
"C. c #868688",
"Z. c #9D8784",
"A. c #959495",
"S. c #9B9B9B",
"D. c #979898",
"F. c #BC8D88",
"G. c #A99391",
"H. c #BBA09F",
"J. c #A49FA2",
"K. c #A4A3A4",
"L. c #ACAAAB",
"P. c #A8A8A8",
"I. c #B4B4B4",
"U. c #BBBCBD",
"Y. c #BAB4B4",
"T. c #C8ABA8",
"R. c #BFBFC1",
"E. c #BDC2C4",
"W. c #C3C3C3",
"Q. c #C6C9CA",
"!. c #CBCBCB",
"~. c #C3C7C8",
"^. c #D4CECC",
"/. c #CED0CF",
"(. c #C9D1D1",
"). c #D4D4D4",
"_. c #D4DADC",
"`. c #DDDEDE",
"'. c #D9D5D5",
"]. c #ECCDC9",
"[. c #DFE0E0",
"{. c #E4E4E4",
"}. c #EBECEB",
"|. c #EAE6E8",
" X c #EFFCFC",
".X c #F1F2F2",
"XX c #FEFEFE",
/* pixels */
"3.3.y.c.c.q.8.w.r.r.r.8.8.9.m.9.4.r.t.n.y.c.q.8.8.9.9.3.9.i.y.",
"w.3.w.n.y.u.i.c.m.c.q.3.w.r.M.6.8.M.m.t.c.9.9.w.r.y.9.9.y.m.N.",
"i.y.8.r.3.8.c.M.n.y.w.w.z w D M r.c.n.y.M.-.4.9.9.9.8.9.r.i.m.",
"u.N.r.8.9.q.r.i.y.i.n.=.; k o.e :.t.t.c.c.q.q.9.9.y.r.9.9.w.w.",
"N.r.y.r.c.v.y.r.y.n.i.x 1 Z.H.S m n.c.c.y.m.c.c.i.N.i.9.8.3.8.",
"c.9.y.y.c.v.v.n.y.r.i.x 4 (. XK.m r.i.c.N.m.m.y.y.u.u.r.r.u.9.",
",.9.c.c.y.y.c.y.w.9.0.1.$ +.*. .* 5.c.i.m.N.y.r.y.i.i.i.n.n.i.",
"9.w.y.n.n.c.c.r.r.a.F J e +.&.+.w V K b a.t.9.u.y.i.n.i.i.y.y.",
"9.9.8.i.c.u.c.b.G P s.D.R Z.].H.T P.L.T E F t.M.c.y.y.r.r.r.9.",
"9.8.y.y.u.w.w.F #.W..X.XY.(  ./ Z..XXX}.Y.V.F p.m.y.u.9.3.8.9.",
"u.i.N.q.w.c.3 B.!.XXXXXX{.T.F.T.'..XXXXXXXR.B.5.r.3.8.w.9.w.c.",
"3.w.3.,.,.2.4 S.W.XXXXXX{.Q.E.~.Q.{.XXXX.XI.B.2 9.8.8.9.y.y.c.",
"3.3.8.8.8.8., A.P.U.|.XXXX`.!.!.'..X|.W.K.P.T + i.i.i.y.y.y.y.",
"8.w.c.v.c.y.1.S.L.S.D.P.I.I.Y.Y.P.J.S.A.S.E.A.c y.m.n.i.y.y.y.",
"w.q.w.c.v.v.a.A.`.U.I.S.D.D.D.S.D.K.L.Y./.{.T p.i.y.i.y.y.y.r.",
"8.4.w.i.u.w.4.S ).[.).U.U./.!.!./.W.W.'.{.W.B 8.n.y.y.9.3.9.9.",
"u.u.N.r.w.n.n.1.Y _.[.Y Y {.[.'.}.V.I /.!.S x y.y.9.9.w.9.9.y.",
"8.y.9.3.3.9.4.l X S U.T I {.'.^.{.V.I A.4     x 8.3.3.9.r.u.n.",
"3.8.,.3.3.3.x       1 S s.J.O.O.$.E V <       O y.t.t.y.i.a.c.",
"3.3.2.9.4.3.c   . + h w o @ % % X X & A C < + 3.c.u.u.q.8.8.4.",
"3.,.i.c.n.q.=.2 I D.S.) Q 6 # $ % W ^ L._.D.V ;.8.9.9.,.9.i.u.",
"r.8.9.c.t.y.n.0.V.~.R.| _ ' ` ` ` ' ^ J._.S.C 5.r.y.9.9.i.v.N.",
"i.y.8.r.3.8.c.t.H J , q / ~ ! ! 7 r r , H b 2.9.9.8.8.9.u.i.i.",
"u.N.u.8.9.9.r.c.u.v - k L ..y = ] ....s 7.<.q.q.9.y.u.9.9.w.r.",
"N.y.c.r.c.n.c.r.N ] h.g.d.f.s - X.h.g.k.X.0 z r.i.v.i.9.8.3.8.",
"y.8.y.i.c.n.r.i { l.z.x.g.[ i : 8 { l.l.l.z.s >.y.u.y.r.u.y.w.",
"-.9.c.c.t.y.8.= d.x.x.f.u e.N.w.c @ [ h.z.x.] >.u.i.i.i.c.v.i.",
"9.w.y.n.n.c.n.q.g } { u -.c.m.9.M.,.p f [ ] a 4.y.i.v.i.i.y.u.",
"9.8.8.c.n.r.c.M.6.9 8 i y.y.u.i.c.4.3.g = > <.M.v.c.y.r.w.r.9.",
"q.8.c.y.r.r.y.c.9.8.r.r.u.u.i.i.c.w.i.r.u.M.m.v.n.r.u.9.3.8.9.",
"r.c.v.9.q.c.c.8.8.9.-.-.8.8.i.y.i.i.m.w.u.r.r.w.r.3.3.w.9.r.i.",
"3.w.3.3.3.3.3.3.9.r.r.9.8.9.u.8.q.8.i.8.9.3.3.r.9.8.8.w.u.y.m."
};
