/* XPM */
static char *looking_up_bg[] = {
/* columns rows colors chars-per-pixel */
"32 32 165 2 ",
"   c #020201",
".  c #080708",
"X  c #0A0A09",
"o  c #0E0000",
"O  c #120C04",
"+  c #190B09",
"@  c #1E1506",
"#  c #100E10",
"$  c #0D1314",
"%  c #181717",
"&  c #171817",
"*  c #151514",
"=  c #280702",
"-  c #2C0F03",
";  c #291C07",
":  c #311511",
">  c #3D2A0B",
",  c #272726",
"<  c #333332",
"1  c #383537",
"2  c #393A39",
"3  c #3A2525",
"4  c #471D11",
"5  c #651307",
"6  c #412C0B",
"7  c #4C330E",
"8  c #482416",
"9  c #522824",
"0  c #5A2E28",
"q  c #483130",
"w  c #563F3D",
"e  c #602D28",
"r  c #66372D",
"t  c #7D3F38",
"y  c #745119",
"u  c #5C4629",
"i  c #76502F",
"p  c #3F3F40",
"a  c #494847",
"s  c #595759",
"d  c #5C5B5C",
"f  c #524848",
"g  c #764843",
"h  c #70504D",
"j  c #635E5B",
"k  c #615B57",
"l  c #6E6149",
"z  c #726657",
"x  c #696A69",
"c  c #786564",
"v  c #6F7170",
"b  c #7E7E7D",
"n  c #767475",
"m  c #911501",
"M  c #991903",
"N  c #A81801",
"B  c #842C1F",
"V  c #9E2511",
"C  c #BA2205",
"Z  c #C51E01",
"A  c #D11E00",
"S  c #C42006",
"D  c #865B18",
"F  c #9C6B1C",
"G  c #A56F1C",
"H  c #AF771E",
"J  c #8F4138",
"K  c #8B6122",
"L  c #8D6629",
"P  c #986C27",
"I  c #AF7924",
"U  c #895F5A",
"Y  c #935F5E",
"T  c #826D4B",
"R  c #876153",
"E  c #8E7956",
"W  c #8D6A68",
"Q  c #876C6A",
"!  c #8E7875",
"~  c #61962F",
"^  c #669C31",
"/  c #689F33",
"(  c #6C9F3C",
")  c #6BA334",
"_  c #6EA936",
"`  c #6EA23C",
"'  c #71AC37",
"]  c #71A53D",
"[  c #73A93E",
"{  c #75B339",
"}  c #78B73A",
"|  c #7BBC3C",
" . c #7EC13D",
".. c #76A646",
"X. c #76AF41",
"o. c #77B041",
"O. c #7AB342",
"+. c #7EBB44",
"@. c #7F817F",
"#. c #BD8122",
"$. c #C18321",
"%. c #CB8A24",
"&. c #D18D24",
"*. c #DA9426",
"=. c #E69C27",
"-. c #EA9E28",
";. c #E5A02C",
":. c #81C53F",
">. c #83C83F",
",. c #81BD45",
"<. c #96876B",
"1. c #B59E7D",
"2. c #83C344",
"3. c #85CA40",
"4. c #88CF42",
"5. c #86C548",
"6. c #8BCC4A",
"7. c #8BD443",
"8. c #8ED945",
"9. c #8ED14B",
"0. c #91D54D",
"q. c #94D94E",
"w. c #91DC46",
"e. c #8AC651",
"r. c #878887",
"t. c #8C8B8B",
"y. c #958B88",
"u. c #948483",
"i. c #90908F",
"p. c gray58",
"a. c #979897",
"s. c #96999A",
"d. c #9B9C9B",
"f. c #A08685",
"g. c #A59592",
"h. c #9EA09F",
"j. c #A19FA0",
"k. c #A5A8A5",
"l. c #A9A7A8",
"z. c #A7A7A6",
"x. c #B3A8A6",
"c. c #AFAFB0",
"v. c #B0AFB0",
"b. c #B7B9B7",
"n. c #B7BBBD",
"m. c #B8B8B7",
"M. c #C4B1AD",
"N. c #C1B6B6",
"B. c #BFC0BE",
"V. c #C5C4C5",
"C. c #C8C7C9",
"Z. c #CBCDCB",
"A. c #D4CDC8",
"S. c #CFD1CF",
"D. c #D5D5D5",
"F. c #D8D7D8",
"G. c #D7D8D8",
"H. c #DBDBDB",
"J. c #DFDEE0",
"K. c #E0DFE0",
"L. c #DFE3E4",
"P. c #EAEBEB",
"I. c #F0EFF0",
"U. c #FEFEFE",
"Y. c #F2F1F1",
/* pixels */
"..` [ O.[ ( X.] ` ] O.,.+...] { ..+.5.6.6.,.,.,.O.O.` ] ] ] ] ..",
"^ ^ | 4.:._ ' | | } ) / _ 3.' ) }  . . .| ) / ) { ^ ) >.3.| } ) ",
",.^ _ :._ | 3.4.3.{ / { |  .) _ 3.3.|  ./ ) } } { / { :.4.8.:.+.",
"2.3.' ' ~ _ 3.3.| | { ) | | } | $ | >.>./ / ) ) ) ' ) } | | >.] ",
"5.>.{ / } | | | | 4.' 2 d j 8 9 r 9 3 s a , } | 3.{ ) ) _ ) ' ] ",
"9._ | | 3.3.| | , x r.r.s.u.q g J g w d.k.p.x < >.| ) _ ) ' ' ] ",
"] ' :.:.| 2.3.1 t.p.z.Z.P.V.f n a.b a n.G.n.c.h.1 | | 3.:._ / X.",
"( { >.>.| :.% @.r.H.U.U.U.n.x F.H.H.n k.U.U.H.z.t.&  . .| } ' ] ",
"o._ { 3.3. ., t.n.U.U.U.I.v.w f.N.m.c C.U.U.U.v.c.< } | { ) _ 2.",
"[ / { >.{ _ , t.k.U.U.U.I.x.h W Y c c I.U.U.Y.a.c., ) ^ _ ) | q.",
"+.| 4.) { 4.* r.t.c.I.U.U.A.Y x.M.g.! U.U.H.s.l.r., _ ) { :.7.5.",
"[ | ) ~ ^ ) , t.a.t.s.c.C.D.W i J h <.n.k.s.k.d.h.< { } | 8.8.,.",
"( ) / ) ^ ^ ^ y.V.k.s.s.a.p.u.W R Q y.i.h.d.k.Z.k.% | | | >.7.,.",
"] ' :.>.| | } s H.H.Z.v.l.j.j.j.j.j.z.z.b.S.H.G.s 3. .| | | { ` ",
"X.' { 4.3.:.:.% a.L.H.H.F.F.V.d.d.j.Z.F.G.G.H.d., | | | | ^ _ ,.",
"[ / } :.} ' 4.:.< l.K.H.F.F.p.V.H.c.c.K.H.H.v.< | | ) ^ _ ^ | q.",
"+.:.>.) { 3.| )   , i.D.H.D.p.D.H.V.z.H.D.h.,     ' _ / } >.7.2.",
"[ | ) ^ ) ) ^       # s l.C.s.G.F.B.d.m.v %         { | +.8.w.2.",
"` / ~ ^ ^ ~ ^         a < 1 d J.H.v.p % , d .       | | } | 4.,.",
"( ^ _ ' ) ^ * < # . , p.<   * r.B.s   o : @.s < 2 < / ) ) ^ ) ] ",
"( ^ :.4.| _ , p.x v a.h.e 5 = + , + - M B l.c.v t.x . :.3.| { ] ",
",./ _ :._ | a m.k.s.B.H.i S Z N M N A Z i K.V.c.b.b . :.3.8.:.+.",
"5.:.' _ ^ ) % x H.d.n.v.e V M C Z Z M m e n.c.A.<., _ { | | 3.] ",
"5.:.{ / } | | % j z k.k 8 R r 4 = = 8 ! y.d h T i ; ) ) _ ) { ` ",
"0.) | | :.3.| | @ G I K i 1.T u   O y <.E y #.;.D X ) _ ) _ _ [ ",
"[ ' :.:.:.:.:.:._ 6 #.*.P K K K O ; F L P #.%.D ;  .| >. ._ ) o.",
"( { :.>.| :.| _ | _ ; H -.*.-.#.O 6 =.-.;.&.7 | >.>. . . .} _ ` ",
"X.' { >.:.:.:.| :.:.| > $.=.*.y   ; D $.G 7 3.|  .| | | } ) _ 2.",
"] / } :.} ' 3.:._ { | | ; 7 > O ) { { @ O 4.3.3.| | / / _ ) | q.",
",.:.3.) { 4.| ) _ / / _ )  . .3. . .| | | | | } / _ _ / }  .7.5.",
") | ) ^ ^ _ ^ / { ' ^ ^ ) { _ ' _ 3._ _ / / ' ) ^ ^ { |  .8.8.| ",
"..] ( ] ( ( ( ] ,.5.9.2.,.9.,.` [ X.O.[ X.] 9.5.+.+.,.2.,.5.9.e."
};
