/* XPM */
static char *looking_right_bg[] = {
/* columns rows colors chars-per-pixel */
"32 32 167 2 ",
"   c #010101",
".  c #090702",
"X  c #0E0D09",
"o  c #140A05",
"O  c #161005",
"+  c #161616",
"@  c #1C1E1C",
"#  c #2E0901",
"$  c #220A03",
"%  c #330901",
"&  c #251A08",
"*  c #2B1E09",
"=  c #2C1B1A",
"-  c #39270A",
";  c #37270A",
":  c gray13",
">  c #282728",
",  c #2D2C2C",
"<  c #302827",
"1  c #353534",
"2  c #3C3C3C",
"3  c #4C0C01",
"4  c #510D00",
"5  c #5F1E13",
"6  c #640F01",
"7  c #6D1907",
"8  c #791909",
"9  c #412D0C",
"0  c #4F350E",
"q  c #563C10",
"w  c #552307",
"e  c #652312",
"r  c #79250A",
"t  c #442E2D",
"y  c #5C2D27",
"u  c #493931",
"i  c #652924",
"p  c #692E22",
"a  c #762E26",
"s  c #3F403F",
"d  c #6E4B15",
"f  c #734F15",
"g  c #7C5316",
"h  c #7A5624",
"j  c #775F36",
"k  c #434343",
"l  c #4B4C4B",
"z  c #5B4947",
"x  c #4F514F",
"c  c #56514E",
"v  c #575B5C",
"b  c #5D5D5D",
"n  c #555253",
"m  c #6E5753",
"M  c #736356",
"N  c #6A6A6A",
"B  c #706F70",
"V  c gray46",
"C  c #797A79",
"Z  c #7A6664",
"A  c #961D06",
"S  c #A71B02",
"D  c #BB1B05",
"F  c #A3260F",
"G  c #AE2D1A",
"H  c #B12B17",
"J  c #91591A",
"K  c #9E5C17",
"L  c #96661B",
"P  c #A26E1C",
"I  c #B87C1E",
"U  c #B67C1F",
"Y  c #8E423C",
"T  c #9F5D55",
"R  c #AD4C41",
"E  c #9A635C",
"W  c #8D7A58",
"Q  c #9C6C6A",
"!  c #8C7977",
"~  c #9F7C78",
"^  c #AD6C67",
"/  c #B8716C",
"(  c #A87E7D",
")  c #61962F",
"_  c #669C31",
"`  c #689F32",
"'  c #6C9F3C",
"]  c #6BA334",
"[  c #6EA936",
"{  c #6EA23C",
"}  c #71AC37",
"|  c #71A53D",
" . c #73AA3D",
".. c #75B339",
"X. c #78B73A",
"o. c #7BBC3C",
"O. c #7FC13D",
"+. c #76A646",
"@. c #76AF41",
"#. c #77B041",
"$. c #7AB342",
"%. c #7EBB44",
"&. c #BC8021",
"*. c #C18222",
"=. c #CA8923",
"-. c #D38F25",
";. c #DF9827",
":. c #EB9E29",
">. c #E49B27",
",. c #ECA029",
"<. c #EBA027",
"1. c #F3A32A",
"2. c #81C53F",
"3. c #83C83F",
"4. c #81BD45",
"5. c #83C344",
"6. c #85CB41",
"7. c #88CF42",
"8. c #86C548",
"9. c #8BCC4A",
"0. c #8BD343",
"q. c #8ED945",
"w. c #8ED14B",
"e. c #91DC46",
"r. c #91D54D",
"t. c #94D94E",
"y. c #8AC651",
"u. c #7F7E80",
"i. c #838383",
"p. c #888788",
"a. c #8E8E8E",
"s. c #958F90",
"d. c gray58",
"f. c #969897",
"g. c #959898",
"h. c #9B9C9B",
"j. c #B48D89",
"k. c #A7918F",
"l. c #A79B99",
"z. c #A49395",
"x. c #A09EA0",
"c. c #9FA1A1",
"v. c #A3A3A4",
"b. c #ACADAC",
"n. c #AAA4A3",
"m. c #B8A3A2",
"M. c #B1AFB0",
"N. c #AEB4B5",
"B. c #B4B4B4",
"V. c #BBBABA",
"C. c #C7928D",
"Z. c #C9ABA8",
"A. c gray77",
"S. c #C6C8C7",
"D. c #C8C7C8",
"F. c #CACACA",
"G. c #D4CCCB",
"H. c #CFD0CF",
"J. c #D0CFD0",
"K. c #D3D4D3",
"L. c #DAD7D6",
"P. c #D9D7D9",
"I. c #DBDCDB",
"U. c #DAE1E3",
"Y. c #E8E8E8",
"T. c #F4F4F4",
"R. c #FEFDFE",
/* pixels */
"+.{  .$. .' #.| ] | $.4.4.|  .@.| 4.8.9.9.%.%.%.$.$.{ {  .{ { +.",
"_ _ O.7.2.] } o.4.X.` ` [ 7.} ` X.2.3.o.X.] ] [ ..` ] 5.6.O.X.] ",
"4._ [ 2.[ o.6.7.3.} ] ..o.o.[ } 6.6.X.2.] ] X.X.} ` X.O.7.q.2.%.",
"5.6.} [ _ ] 6.7.2.o...{ X.o.X.o.o.o.6.3.` ` ] ] [ [ ] X.o.o.2.@.",
"8.3...] X.o.o.< n 5 6 u k 1 : O.o.o.o.o.o.o.X.o.7.X.] ] [ ] ..{ ",
"w.] o.o.6.6.o.v ( D H l.b.P.i.: l l l 2 2 O.o.O.O.X.] } ] [ } { ",
"| } 2.O.o.3.6.v Q D G d.U.R.K.z a.h.d.p.a.C N x 1 o.X.6.6.] ] @.",
"{ ..3.3.o.4.o.= t a e z m.C.E i k.A.S.Y.K.K.D.h.V b O.O.O.X.} { ",
"#.[ } 7.6.O.3.o.1 V x.~ 8 D H Y ~ Y.F.b.F.D.R.R.D.p.B o.X.] [ 4.",
" .] ..3...[ 6.6.b d.R.L.m j.Z.G.Z B.R.A.L.T.R.R.R.l.d.s } ] X.t.",
"%.O.7.] ..7.X., C h.F.T.! Q ^ R a z.R.Y.T.R.R.R.T.g.c.1 ..2.0.8.",
" .X.] ) ` , f.f.x v.d.B.M.( / C.Z.R.R.R.R.R.Y.A.a.a.h.k o.q.e.5.",
"' ] _ ` _ V I.N 2 v.x.h.d.h.v.N.V.N.V.B.B.d.p.i.g.B.F.l o.2.0.%.",
"| } 3.3.+ h.K.2 + B.K.V.M.v.c.g.g.f.f.g.d.f.b.b.v.P.S., o.o...{ ",
"@.} ..7.6.C I.i.: n I.I.P.K.J.F.A.A.A.F.J.K.I.x.k B.T A 3 ` [ 5.",
"| ] ..6...> i.V.B.C C K.I.P.I.F.V.F.A.A.K.I.I.v.s n.y 7 % ` o.t.",
"%.%.7.] X.7.o.k b n @ b V.I.I.V.b.b.F.h.B.V.S.M.B l [ ] ..3.0.8.",
" .X.[ ) ` ] _ _ ....] _ 1 i.V.J.v.A.U.F.Y.V.i.V > ] ..o.O.q.e.4.",
"{ ` ) _ ) _ _ ` ..o.7.o.  . + 1 u k v N N l @ X X.X.X.X.X.o.0.4.",
"{ _ [ } ] _ [ ` _ ] X.                          ....] ] ] _ ] { ",
"{ _ O.0.O.] ..o.o..._       n k .           # $ - ; ] O.6.o...{ ",
"%.` [ 2.[ o.6.7.7.} 2 l 1 1 C h.B o $ % 3 8 7 K -.=.d . 7.q.3.%.",
"5.3.} [ _ ] 6.7.O.N v.g.V i.i.A.Z.i F S A r J :.1.1.P o o.o.2. .",
"8.3...` X.X.o.o.O., b B.B.F.n.L.! p e w J L I =.*.L - ] [ ] ..{ ",
"w.[ o.o.6.6.o.o.o.o.2.s N g.c M B n.u & 0 9 * & & o.] } ] [ [ | ",
"| } 2.o.o.6.6.O.] X.} 6.7.6.& h j W h d * O.X.o.o.o.o.6.3.] ] #.",
"' ..6.6.o.2.o.[ X.[ X.o.6.0.; P U U =.>.=.P q o 3.6.O.O.o.o.[ { ",
"@.} } 6.6.o.3.o.3.3.o.o.4.o.X.- g &.<.:.<.1.-.- O.o.X.o.X.] } 5.",
"| ] ..3...} 6.6.] X.o.o.X.o.3.o.[ * L ;.<.<.*.* o.o.` ` } _ o.r.",
"%.4.6.[ ..7.o.] [ ` ` [ ] o.3.6.2.O.O 0 g f - X.` } [ ` ..6.0.8.",
"] X.[ ) ` ] _ _ ..} ] _ ] ..[ [ } 7.[ [ ] ` } ] _ ` ..o.o.q.q.o.",
"+.| ' { { ' ' | 4.8.w.4.4.w.4.{  . .$. . .+.w.4.4.%.4.5.4.8.r.y."
};
