/* XPM */
static char *looking_left[] = {
/* columns rows colors chars-per-pixel */
"32 32 160 2 ",
"   c #010101",
".  c #080602",
"X  c #0E0C09",
"o  c #1A0708",
"O  c #110C04",
"+  c #161005",
"@  c #151616",
"#  c #171817",
"$  c #1C1D1C",
"%  c #200603",
"&  c #2E0901",
"*  c #230F03",
"=  c #330800",
"-  c #251A08",
";  c #2A1D08",
":  c #271808",
">  c #2B1C1A",
",  c #1D201D",
"<  c #2D2009",
"1  c #35250A",
"2  c #39270A",
"3  c #3E2B0A",
"4  c #212121",
"5  c #29272A",
"6  c #2B2B2B",
"7  c #302827",
"8  c #302D2C",
"9  c #353534",
"0  c #3C3D3C",
"q  c #4C0C01",
"w  c #510D00",
"e  c #5F1D14",
"r  c #630D01",
"t  c #6C1E08",
"y  c #6D1406",
"u  c #791809",
"i  c #412D0C",
"p  c #552308",
"a  c #4E350E",
"s  c #563B10",
"d  c #7A240A",
"f  c #612510",
"g  c #6A2115",
"h  c #442E2D",
"j  c #5B2E28",
"k  c #493932",
"l  c #652924",
"z  c #692D22",
"x  c #762E26",
"c  c #6D4B15",
"v  c #744F15",
"b  c #7B5316",
"n  c #795624",
"m  c #775E37",
"M  c #403F40",
"N  c #434343",
"B  c #4B4847",
"V  c #4B4C4B",
"C  c #554F4E",
"Z  c #5B4A47",
"A  c #4F504F",
"S  c #535353",
"D  c #57595B",
"F  c #5C5D5D",
"G  c #5B5252",
"H  c #675A59",
"J  c #726454",
"K  c #656565",
"L  c #6B6C6B",
"P  c #786967",
"I  c #74706C",
"U  c #747575",
"Y  c #787778",
"T  c #7B7B7B",
"R  c #971D06",
"E  c #A71A02",
"W  c #BB1B05",
"Q  c #A3260F",
"!  c #AD2716",
"~  c #AE2E1A",
"^  c #B22B17",
"/  c #C21D06",
"(  c #9E5C18",
")  c #91591A",
"_  c #95661B",
"`  c #A26E1D",
"'  c #B77C1F",
"]  c #B87C1E",
"[  c #805C27",
"{  c #8E423C",
"}  c #9F5D55",
"|  c #AC4D42",
" . c #99635C",
".. c #8D7A59",
"X. c #9C6C6A",
"o. c #8F7672",
"O. c #897D7C",
"+. c #9E7B76",
"@. c #AE6B66",
"#. c #B9716C",
"$. c #A37D7A",
"%. c #A87E7E",
"&. c #BD8021",
"*. c #C18222",
"=. c #CA8923",
"-. c #D28F25",
";. c #DF9827",
":. c #D49126",
">. c #EA9F27",
",. c #E49C28",
"<. c #EC9D29",
"1. c #ECA127",
"2. c #EDA12A",
"3. c #F3A32A",
"4. c #848384",
"5. c #8D8D8E",
"6. c #938E8C",
"7. c #949494",
"8. c #959897",
"9. c #999798",
"0. c #9A9B9B",
"q. c #979A9A",
"w. c #B58E88",
"e. c #A89290",
"r. c #A59797",
"t. c #AAA19F",
"y. c #A09FA1",
"u. c #9FA2A1",
"i. c #A4A3A4",
"p. c #A9A7A8",
"a. c #ACADAC",
"s. c #B4AFAF",
"d. c #B8A3A2",
"f. c #B0AFB1",
"g. c #AEB3B3",
"h. c #B4B4B4",
"j. c #BBBBBB",
"k. c #B9B2B3",
"l. c #C68A83",
"z. c #C69995",
"x. c #C9AAA8",
"c. c #D7C1BF",
"v. c #C4C4C4",
"b. c #C7C8C7",
"n. c #C8C7C8",
"m. c #CACACA",
"M. c #D4CCCC",
"N. c #CFD0CF",
"B. c #D0CFD0",
"V. c #D4D4D4",
"C. c #DAD7D7",
"Z. c #D8D7D8",
"A. c #DBDCDC",
"S. c #DAE1E2",
"D. c #E5E4E5",
"F. c #E6EBE8",
"G. c #EBECEB",
"H. c #F4F3F4",
"J. c #FEFDFE",
"K. c None",
/* pixels */
"K.K.K.K.K.K.K.K.K.K.K.K.K.K.K.K.K.K.K.K.K.K.K.K.K.K.K.K.K.K.K.K.",
"K.K.K.K.K.K.K.K.K.K.K.K.K.K.K.K.K.K.K.K.K.K.K.K.K.K.K.K.K.K.K.K.",
"K.K.K.K.K.K.K.K.K.K.K.K.K.K.K.K.K.K.K.K.K.K.K.K.K.K.K.K.K.K.K.K.",
"K.K.K.K.K.K.K.K.K.K.K.K.K.K.K.K.K.K.K.K.K.K.K.K.K.K.K.K.K.K.K.K.",
"K.K.K.K.K.K.K.K.K.K.K.K.K.K.K.K.K., 9 N k w e G 7 K.K.K.K.K.K.K.",
"K.K.K.K.K.K.K.K.K.K.K.0 N V V N 4 4.A.a.r.^ W %.F K.K.K.K.K.K.K.",
"K.K.K.K.K.K.K.9 A L Y 5.5.7.q.6.Z M.J.S.7.^ / X.D K.K.K.K.K.K.K.",
"K.K.K.K.K.K.F U q.b.Z.V.D.b.v.e.l  .z.d.Z g x h > K.K.K.K.K.K.K.",
"K.K.K.K.K.L 5.b.J.J.n.b.f.m.F.$.{ ! W R +.0.U 9 K.K.K.K.K.K.K.K.",
"K.K.K.K.M 7.0.J.J.J.H.Z.v.J.f.P M.x.e.H Z.J.7.F K.K.K.K.K.K.K.K.",
"K.K.K.K.9 i.9.G.J.J.J.H.D.J.e.x | @.X.O.H.M.q.Y 6 K.K.K.K.K.K.K.",
"K.K.K.K.N q.7.5.n.G.J.J.J.J.J.M.l.#.%.h.h.7.i.V i.8.6 K.K.K.K.K.",
"K.K.K.K.V b.h.9.4.4.9.h.h.h.h.h.g.i.0.8.8.r.i.N K A.U K.K.K.K.K.",
"K.K.K.K.8 b.Z.p.a.a.q.7.7.7.7.5.7.i.p.a.j.V.g.# 9 V.0.@ K.K.K.K.",
"K.K.K.w R } k.M i.A.V.N.m.v.v.v.m.N.V.Z.A.Z.D 4 4.A.Y K.K.K.K.K.",
"K.K.K.= y j i.N i.A.Z.V.v.v.M.j.m.Z.Z.A.V.T T h.j.4.5 K.K.K.K.K.",
"K.K.K.K.K.K.V I h.b.j.a.0.n.a.a.j.A.A.v.F $ S H M K.K.K.K.K.K.K.",
"K.K.K.K.K.K.K.5 U 4.j.G.b.S.v.p.N.j.4.9 K.K.K.K.K.K.K.K.K.K.K.K.",
"K.K.K.K.K.K.K.K.X $ V L L F N M 9 #     K.K.K.K.K.K.K.K.K.K.K.K.",
"K.K.K.K.K.K.K.K.                          K.K.K.K.K.K.K.K.K.K.K.",
"K.K.K.K.K.K.1 i * &           . 0 A       K.K.K.K.K.K.K.K.K.K.K.",
"K.K.K.K.. c =.:.( t u q & % o I q.4.9 9 V 9 K.K.K.K.K.K.K.K.K.K.",
"K.K.K.K.O ` 3.3.>.) d R E Q l x.n.4.4.U 9.p.L K.K.K.K.K.K.K.K.K.",
"K.K.K.K.K.i _ ] =.] _ ) p f g o.C.p.n.f.h.F 6 K.K.K.K.K.K.K.K.K.",
"K.K.K.K.K.K.K.- - ; i a : k i.I J S 9.L N K.K.K.K.K.K.K.K.K.K.K.",
"K.K.K.K.K.K.K.K.K.K.K.; c [ ..m n - K.K.K.K.K.K.K.K.K.K.K.K.K.K.",
"K.K.K.K.K.K.K.K.X s ` =.,.=.] ] ` 1 K.K.K.K.K.K.K.K.K.K.K.K.K.K.",
"K.K.K.K.K.K.K.K.1 :.2.2.2.2.&.b 2 K.K.K.K.K.K.K.K.K.K.K.K.K.K.K.",
"K.K.K.K.K.K.K.K.; *.2.1.;._ ; K.K.K.K.K.K.K.K.K.K.K.K.K.K.K.K.K.",
"K.K.K.K.K.K.K.K.K.2 v b a + K.K.K.K.K.K.K.K.K.K.K.K.K.K.K.K.K.K.",
"K.K.K.K.K.K.K.K.K.K.K.K.K.K.K.K.K.K.K.K.K.K.K.K.K.K.K.K.K.K.K.K.",
"K.K.K.K.K.K.K.K.K.K.K.K.K.K.K.K.K.K.K.K.K.K.K.K.K.K.K.K.K.K.K.K."
};
