/* XPM */
static char *opened_door_bg[] = {
/* columns rows colors chars-per-pixel */
"32 32 186 2 ",
"   c #3E1F00",
".  c #371E10",
"X  c #3F230F",
"o  c #3E2312",
"O  c #401F00",
"+  c #472400",
"@  c #4C2600",
"#  c #4F2800",
"$  c #532B03",
"%  c #5B2E02",
"&  c #532A0B",
"*  c #5E3105",
"=  c #5E320A",
"-  c #573009",
";  c #543713",
":  c #593512",
">  c #553913",
",  c #5C3B14",
"<  c #653200",
"1  c #6C3702",
"2  c #6E3802",
"3  c #643508",
"4  c #6E3C0B",
"5  c #713A03",
"6  c #793E03",
"7  c #723D0B",
"8  c #643D13",
"9  c #683F16",
"0  c #7D4106",
"q  c #73400D",
"w  c #7D420B",
"e  c #68431C",
"r  c #644319",
"t  c #744514",
"y  c #7C4714",
"u  c #784818",
"i  c #484425",
"p  c #6B4722",
"a  c #6E4A24",
"s  c #6C4A29",
"d  c #714C2A",
"f  c #7D4820",
"g  c #74522D",
"h  c #755331",
"j  c #7F5B32",
"k  c #7C5B3A",
"l  c #57782E",
"z  c #5C7D32",
"x  c #854504",
"c  c #80430B",
"v  c #894707",
"b  c #824511",
"n  c #8A4B12",
"m  c #8A4E1B",
"M  c #854B18",
"N  c #8C501D",
"B  c #8D5317",
"V  c #90531E",
"C  c #875123",
"Z  c #885221",
"A  c #9A5A2B",
"S  c #8D5E39",
"D  c #805E3E",
"F  c #A45C24",
"G  c #A95B26",
"H  c #81652E",
"J  c #9A6632",
"K  c #AB6B2B",
"L  c #A76725",
"P  c #B67326",
"I  c #C26D2E",
"U  c #846545",
"Y  c #896C4A",
"T  c #86664B",
"R  c #8A6E53",
"E  c #8F7255",
"W  c #93765A",
"Q  c #D77D44",
"!  c #628A34",
"~  c #679E32",
"^  c #689F33",
"/  c #629332",
"(  c #6BA334",
")  c #6FAA36",
"_  c #6FA33C",
"`  c #6FA938",
"'  c #70AC37",
"]  c #70A53D",
"[  c #73AA3D",
"{  c #75B439",
"}  c #78B73A",
"|  c #7BBB3C",
" . c #7EC13D",
".. c #6E8C4A",
"X. c #779C43",
"o. c #758855",
"O. c #73A543",
"+. c #7EA344",
"@. c #76AE41",
"#. c #76A649",
"$. c #7BAC4C",
"%. c #79B341",
"&. c #7EBB43",
"*. c #7FAD53",
"=. c #80C43F",
"-. c #AE935C",
";. c #81BD45",
":. c #83A750",
">. c #84B455",
",. c #86BC52",
"<. c #86B359",
"1. c #89B85B",
"2. c #8CA368",
"3. c #8FB767",
"4. c #91B06E",
"5. c #96BE71",
"6. c #95A977",
"7. c #BDA06C",
"8. c #D68143",
"9. c #D88043",
"0. c #C3A568",
"q. c #D2B273",
"w. c #83C145",
"e. c #84C940",
"r. c #88CF42",
"t. c #86C349",
"y. c #8CCA4E",
"u. c #8CD443",
"i. c #8ED945",
"p. c #91DC46",
"a. c #92D64E",
"s. c #94D94E",
"d. c #8AC352",
"f. c #8FCA54",
"g. c #97D459",
"h. c #94C962",
"j. c #97C56A",
"k. c #9BD069",
"l. c #9BC671",
"z. c #A1CF75",
"x. c #A7D778",
"c. c #9EB180",
"v. c #A7B98A",
"b. c #ABBB93",
"n. c #ADBB9A",
"m. c #B4BE9F",
"M. c #C5BD88",
"N. c #A7C986",
"B. c #ABD285",
"V. c #B2DA8B",
"C. c #B3C79A",
"Z. c #B3D394",
"A. c #B9D999",
"S. c #BFE39B",
"D. c #B9E290",
"F. c #B8C6A3",
"G. c #BED5A7",
"H. c #D6C598",
"J. c #CBCA9B",
"K. c #C2E59F",
"L. c #C3DFA9",
"P. c #CCDFBA",
"I. c #C7E5A9",
"U. c #CDE4B6",
"Y. c #CEE9B4",
"T. c #D1E6BC",
"R. c #D5EDBD",
"E. c #D0E9B7",
"W. c #D6EBC2",
"Q. c #D9EEC3",
"!. c #D9E7CB",
"~. c #DCEDCB",
"^. c #DCF1C8",
"/. c #DCE9D1",
"(. c #E0EDD4",
"). c #E5EEDB",
"_. c #E6F2DB",
"`. c #E9F4DE",
"'. c #E3F2D5",
"]. c #ECF5E4",
"[. c #EFF5E9",
"{. c #F1F7EC",
"}. c #F3F9ED",
"|. c #F5FAF1",
" X c #F9FCF6",
".X c #FEFEFD",
/* pixels */
").|. X X.X X X|.]./.U.A.x.o.9 7 K Q G , ;.;.;.;.%.%.] ] ] ] ] O.",
"{. X.X.X.X.X.X.X X[.!.G.N.2.a 4 4 K 8.G > / ~ ( ' ~ ( =.e. .} ^ ",
" X.X.X.X.X.X.X.X.X|._.T.A.2.d : = 1 L 9.G ; ( } { ~ { =.r.i.=.;.",
" X.X.X.X.X.X.X.X.X X}.!.L.6.h 9 - % < L Q G ; / ) ' ) { |  .=.[ ",
" X.X.X.X.X.X.X.X.X.X}.(.I.6.k e 7 < 2 < F Q G ; | { ( ~ ) ( ' ] ",
"|..X.X.X.X.X.X.X.X.X}._.U.v.k e q M 5 % < F 8.I e { ) ' ^ ) ' [ ",
"{. X.X.X.X.X.X.X.X.X|.`.R.v.U p q M 7 X * < L P & | | e.=.( ~ @.",
"]. X.X.X.X.X.X.X.X.X|.`.Q.b.U p t N 7 @ $ % 6 * o =. . .=.| ' ] ",
"_.|..X.X.X.X.X.X.X.X X].W.n.T s t N 4 @ 2 < 6 3 O ;.} | } ( ) ;.",
").{. X.X.X.X.X.X.X.X X].~.C.R S t N 7 @ 5 b c 3 o &.~ ~ ) ( } s.",
").}..X.X.X.X.X.X.X.X X{.!.J.7.S C M 7 @ 2 b c 3 o ) ) ( }  .u.t.",
").{. X.X.X.X.X.X.X.X X{.~.H.q.H C N 4 @ 2 c w 3 o ( { }  .i.i.w.",
"].|..X.X.X.X.X.X.X.X X}.~.H.0.H u G 4 @ 2 b c 3 o | | | |  .u.;.",
"]. X.X.X.X.X.X.X.X.X X[.Q.H.0.g u Z 3 @ 2 b c 3 o e. . . .} { _ ",
"{..X.X.X.X.X.X.X.X X X`.R.J.-.a , 3 1 $ 2 c w 3 o  .{ | { ~ ) ;.",
"{. X.X.X.X.X.X.X.X.X|._.T.b.D a 8 * 2 w q w b = o } ( ( ) ( | s.",
"}. X.X.X.X.X.X.X.X.X}.).P.b.U a w b 7 2 b m w 3 O @.` ( {  .u.t.",
"{. X.X.X.X.X.X.X.X.X|._.P.b.Y a t m 4 + 2 b 6 3 o ( { |  .i.p.w.",
"{..X.X.X.X.X.X.X.X.X X].W.n.R d t m 7 + @ < 0 3 o } | } } | r.w.",
"{..X.X.X.X.X.X.X.X.X X[.!.n.W d t m 7 @ 1 % 0 3 o { ^ ( ( ^ ( _ ",
"{..X.X.X.X.X.X.X.X.X X{.!.F.W h u N 4 @ 2 c w 3 o ~ ( =.e.| { _ ",
"{..X.X.X.X.X.X.X.X.X X{.~.F.W h u m q @ 2 M c 3 o ( { =.r.i.=.&.",
"]. X.X.X.X.X.X.X.X.X.X].~.m.E D u N 4 @ 2 b c 3 o ) ( } |  .=.@.",
"'.{. X.X.X.X.X.X.X.X X].W.Z.R J C M 4 @ 2 c c 3 o { ( ( ) ( ' _ ",
"Q.(.}.|. X X.X.X.X.X{._.E.Z.4.d B A 4 @ 2 b c 3 o } ( ) ( ) ) [ ",
"A.U.~._.}.}. X X X}.).Q.I.V.k..., n 1 + 2 c c 3 o | | e.e.( ( @.",
"v.Z.I.W.~._.].]._.(.W.I.D.x.,.y._ - 5 * 2 b c 3 o e. .=.=.} ) _ ",
"j.l.B.I.I.E.R.W.R.Y.L.V.x.h.y.y.;.z $ v w w c 3 o | } | } ( ) w.",
"<.<.l.x.B.B.K.S.Z.V.B.l.h.:.+.;.( { ! % v m c 3 o } ( ~ ) ( } s.",
",.d.g.<.j.x.z.5.l.3.<.<.@.:.X.t. . .{ ! $ c w 3 o ) ) ( } =.u.t.",
"` ;.@.O.$.>.*.*.,.,.$.O.[ %.' ' ' r.] ' l @ x 1 o ( { |  .i.i.| ",
"#.O.O.O.O.#.#.$.,.f.g.t.,.a.;.] [ [ %.[ @.z = - i &.;.w.&.t.a.d."
};
