/* XPM */
static char *closed_door_bg[] = {
/* columns rows colors chars-per-pixel */
"32 32 96 2 ",
"   c #392622",
".  c #3E2D23",
"X  c #442200",
"o  c #4D2700",
"O  c #4F2800",
"+  c #522A00",
"@  c #5B2E00",
"#  c #5D3000",
"$  c #563900",
"%  c #5A3B00",
"&  c #492F14",
"*  c #4B3115",
"=  c #543513",
"-  c #633200",
";  c #6A3501",
":  c #643E04",
">  c #6F3900",
",  c #713A00",
"<  c #7A3F00",
"1  c #7B3F15",
"2  c #4B441E",
"3  c #694B00",
"4  c #69410B",
"5  c #724408",
"6  c #7C410D",
"7  c #754908",
"8  c #745502",
"9  c #7D4415",
"0  c #4F4424",
"q  c #4F4920",
"w  c #474428",
"e  c #504A20",
"r  c #82440C",
"t  c #814315",
"y  c #864916",
"u  c #894B16",
"i  c #884518",
"p  c #8A4B1B",
"a  c #954F13",
"s  c #924F1A",
"d  c #8E5016",
"f  c #8D531B",
"g  c #94501A",
"h  c #965A1D",
"j  c #995C1F",
"k  c #926D0E",
"l  c #8F4E20",
"z  c #A55B26",
"x  c #A76328",
"c  c #B66636",
"v  c #B7673A",
"b  c #B76B38",
"n  c #BF733A",
"m  c #C3743B",
"M  c #CB7F3E",
"N  c #61962F",
"B  c #669C31",
"V  c #689F33",
"C  c #6C9F3C",
"Z  c #6BA334",
"A  c #6FAA36",
"S  c #6EA23C",
"D  c #70AC37",
"F  c #70A53D",
"G  c #73AA3D",
"H  c #75B339",
"J  c #78B73A",
"K  c #7BBC3C",
"L  c #7EC13D",
"P  c #76A646",
"I  c #76AF41",
"U  c #77B041",
"Y  c #7AB442",
"T  c #7EBB44",
"R  c #B48526",
"E  c #B7852A",
"W  c #C08B2E",
"Q  c #CF803F",
"!  c #D1813F",
"~  c #CC9535",
"^  c #CA9C3F",
"/  c #E2943D",
"(  c #81C43F",
")  c #83C83F",
"_  c #81BD45",
"`  c #83C245",
"'  c #85CA40",
"]  c #88CF42",
"[  c #86C648",
"{  c #8BD443",
"}  c #8ED945",
"|  c #8DD04B",
" . c #91DC46",
".. c #91D64D",
"X. c #94D94E",
"o. c #8AC651",
/* pixels */
"P S G Y G C U w 0 * q q q w 2 2 2 0 2 e e e e q Y Y S S S S F P ",
"B B L ] ( Z D   z t t t t t t t 1 t t t t 9 9 t H B Z ' ' L K Z ",
"_ B A ( A K '   / ! ! M Q Q Q ! n M Q m n v b c H Z J L ' } L T ",
"` ' D D N A '   x h h h h h h h j h j d d g u r Z A Z J K L ( G ",
"[ ' H Z J K K   i - ; ; ; ; ; - - ; ; ; ; > ; ; ' J Z Z A A H S ",
"| A K K ' ' K   s > - - # - - ; > - # - # - ; , L K Z A Z A A S ",
"F D ( K K ) '   s @ o o o o o > , X o o o o ; , K L K ' ( Z Z I ",
"S H ) ' K ` K   g @ @ , , , , p , + > , , , 6 , ) ' L L L K A S ",
"I A H ' ' L (   g @ # > , > , p > + , > > , 6 > K L J K J Z D ` ",
"F Z J ( H A '   g @ # > > > , p , + , > > , 6 , K J Z B A B K X.",
"T L ' Z H ] K   g @ @ , > > > p , + , > > , 6 , Z A A Z H ( { ` ",
"G K Z N B Z B   g @ @ , > > , p > + , > > > 6 , B B H J T } } ` ",
"C Z V V B B B   g @ @ , > > > p , + > > > , 9 , K J K L K L { ` ",
"F D ( ' K K J   g + @ ; > > > p , + > > > > 6 , ' ' L K K K H S ",
"I D H ] ' ( '   g @ > y > > , p , + , > > > 6 , L K J K J Z A T ",
"F Z J ( J D '   i : ; 1 t > , l , o 5 , , , 9 , K J Z B D B K X.",
"_ _ ] Z J ] K   7 ^ % > 6 y y 9 > ; y y t y 9 , B D A B J ( { [ ",
"F K A N V Z B   k ~ 8 : , < , > > < , < < < > > B Z H K L }  .` ",
"F B N B N B B   8 E 3 : : o + ; , O O O + o - , J K K J J K ] _ ",
"C B Z H Z B D   5 W % ; o @ # 6 , X # # @ # , , H D Z Z Z B Z F ",
"S B ( ) ( Z D   l R $ X ; , , l , + , , , 5 6 , D B V L ' K J S ",
"_ B A ) A K '   p 4 # > , > , p , + , > , , 1 , H V H ( ' } ' T ",
"` ) D D B Z '   s o @ , > > > p , o , > , , 1 , A D Z J K K L G ",
"[ ) H V J K K   s @ @ , > > > p , + , > , , 6 , ] H A Z A Z H S ",
"| A K K ) ) K   s @ @ , > > , p , + , > > > 6 , L K Z D Z A D G ",
"F D ( _ ( ) )   s @ @ , > > > p , + > > > , 6 , K K K ) ( Z B U ",
"S H ) ) K ( K   s @ @ , > > , p , + , > > , 6 , ' ' L T K K A G ",
"G D H ' ( ( )   s @ @ , > , > p , o > > > , 6 , K K K K K Z A ` ",
"F Z H ) H D )   g @ @ , > , , p , o , > , , 6 , K J Z B A B K X.",
"T ( ) Z J ] K   g - , p y y i y , ; y p i u r , V D A V J L { [ ",
"Z K Z B Z Z B   a , < , , , < > , , , , , , , , B V H K K } } K ",
"P F C S S C S . = * * & * * & & & & * & & & & & _ _ _ ` _ [ ..o."
};
