/* XPM */
static char *looking_up[] = {
/* columns rows colors chars-per-pixel */
"32 32 163 2 ",
"   c #020201",
".  c #0E0000",
"X  c #080708",
"o  c #0A0A09",
"O  c #120C04",
"+  c #180806",
"@  c #1A0D0B",
"#  c #1E1505",
"$  c #1F1608",
"%  c #100E10",
"&  c #0D1314",
"*  c #141313",
"=  c #181717",
"-  c #171817",
";  c #1A1B1A",
":  c #280702",
">  c #2C0F03",
",  c #370901",
"<  c #2A1D07",
"1  c #281B07",
"2  c #241B1A",
"3  c #391C18",
"4  c #3D2A0B",
"5  c #242424",
"6  c #2C2C2B",
"7  c #3A2525",
"8  c #333332",
"9  c #383537",
"0  c #383837",
"q  c #3A3B3A",
"w  c #471D11",
"e  c #651307",
"r  c #412C0B",
"t  c #4C330E",
"y  c #482416",
"u  c #522824",
"i  c #5A2E28",
"p  c #483130",
"a  c #563F3D",
"s  c #602D28",
"d  c #642C25",
"f  c #66372D",
"g  c #7D3F38",
"h  c #734D17",
"j  c #745119",
"k  c #5C4629",
"l  c #765729",
"z  c #77423C",
"x  c #3F3F40",
"c  c #444443",
"v  c #4D4C4B",
"b  c #524848",
"n  c #595759",
"m  c #5C5B5C",
"M  c #595657",
"N  c #764843",
"B  c #70504D",
"V  c #635E5B",
"C  c #615B57",
"Z  c #7E5856",
"A  c #6E6149",
"S  c #726657",
"D  c #626362",
"F  c #6B6C6B",
"G  c #786564",
"H  c #6F7170",
"J  c #727172",
"K  c #797777",
"L  c #7E7E7D",
"P  c #911501",
"I  c #991B04",
"U  c #991601",
"Y  c #A41800",
"T  c #AC1901",
"R  c #842C1F",
"E  c #9E2511",
"W  c #BA2205",
"Q  c #C81F02",
"!  c #C41E01",
"~  c #D11E00",
"^  c #C42006",
"/  c #D02002",
"(  c #865B18",
")  c #9C6B1C",
"_  c #A56F1C",
"`  c #AF771E",
"'  c #8F4138",
"]  c #93463B",
"[  c #8B6122",
"{  c #8D6629",
"}  c #986C27",
"|  c #AF7924",
" . c #895F5A",
".. c #935F5E",
"X. c #826D4B",
"o. c #876153",
"O. c #8E7956",
"+. c #876C6A",
"@. c #8D6A68",
"#. c #8E7875",
"$. c #817D7C",
"%. c #7F817F",
"&. c #BD8122",
"*. c #C18321",
"=. c #CB8A24",
"-. c #D18D24",
";. c #DA9426",
":. c #EA9E28",
">. c #E69C27",
",. c #E5A02C",
"<. c #96876B",
"1. c #B59E7D",
"2. c #848484",
"3. c #878887",
"4. c #8C8C8C",
"5. c #8E8686",
"6. c #948483",
"7. c #958B88",
"8. c #928B81",
"9. c #90908F",
"0. c #949494",
"q. c #979897",
"w. c #9B9C9B",
"e. c #96999A",
"r. c #A08685",
"t. c #A59592",
"y. c #9EA09F",
"u. c #A3A19E",
"i. c #A19FA0",
"p. c #A3A3A3",
"a. c #A9A7A8",
"s. c #ACACAB",
"d. c #A5A8A5",
"f. c #B3A8A6",
"g. c #AFAFB0",
"h. c #B0AFB0",
"j. c #B3B3B3",
"k. c #B7B9B7",
"l. c #BCBCBB",
"z. c #B7BBBD",
"x. c #C4B1AD",
"c. c #C1B6B6",
"v. c #BFC0BE",
"b. c #C5C4C5",
"n. c #C9C7C7",
"m. c #C8C7C9",
"M. c #CBCDCB",
"N. c #D4CDC8",
"B. c #CFD1CF",
"V. c #D5D5D5",
"C. c #D7D8D7",
"Z. c #D8D7D8",
"A. c #D7D8D8",
"S. c #DBDBDB",
"D. c #DFDEE0",
"F. c #E0DFE0",
"G. c #DFE3E4",
"H. c #E6E7E6",
"J. c #EEEEEF",
"K. c #F0EFF0",
"L. c #F2F1F1",
"P. c #FEFEFE",
"I. c None",
/* pixels */
"I.I.I.I.I.I.I.I.I.I.I.I.I.I.I.I.I.I.I.I.I.I.I.I.I.I.I.I.I.I.I.I.",
"I.I.I.I.I.I.I.I.I.I.I.I.I.I.I.& I.I.I.I.I.I.I.I.I.I.I.I.I.I.I.I.",
"I.I.I.I.I.I.I.I.I.I.x n V y u f u 7 n v 5 I.I.I.I.I.I.I.I.I.I.I.",
"I.I.I.I.I.I.I.5 F %.3.q.5.p N ' N a w.d.0.F 8 I.I.I.I.I.I.I.I.I.",
"I.I.I.I.I.I.9 4.0.d.M.H.m.b K q.L v l.Z.l.s.y.0 I.I.I.I.I.I.I.I.",
"I.I.I.I.I.= %.3.S.P.P.P.z.F Z.S.S.J p.P.P.S.a.4.- I.I.I.I.I.I.I.",
"I.I.I.I.I.5 4.l.P.P.P.K.h.a r.c.l.G m.P.P.P.j.g.8 I.I.I.I.I.I.I.",
"I.I.I.I.I.5 9.p.P.P.P.K.f.B @...G G K.P.P.L.q.s.6 I.I.I.I.I.I.I.",
"I.I.I.I.I.* 3.4.s.J.P.P.N. .f.x.t.#.P.P.S.q.a.3.5 I.I.I.I.I.I.I.",
"I.I.I.I.I.5 4.q.4.q.j.M.V.@.g ' B <.v.p.q.p.w.y.8 I.I.I.I.I.I.I.",
"I.I.I.I.I.I.9.m.p.e.q.q.0.6.@. .+.7.9.y.w.d.M.p.= I.I.I.I.I.I.I.",
"I.I.I.I.I.I.n S.S.M.j.a.i.i.i.w.i.p.d.k.B.S.A.m I.I.I.I.I.I.I.I.",
"I.I.I.I.I.I.= q.F.S.S.Z.Z.b.w.w.i.B.A.A.C.S.y.5 I.I.I.I.I.I.I.I.",
"I.I.I.I.I.I.I.8 s.F.S.Z.Z.0.b.S.g.g.D.A.S.j.8 I.I.I.I.I.I.I.I.I.",
"I.I.I.I.I.I.I.  5 0.V.S.V.0.V.S.b.p.S.V.y.6     I.I.I.I.I.I.I.I.",
"I.I.I.I.I.I.      % n s.m.q.V.Z.v.y.k.F =         I.I.I.I.I.I.I.",
"I.I.I.I.I.I.        c 6 9 D S.S.g.x - 5 m X       I.I.I.I.I.I.I.",
"I.I.I.I.I.* 8 * X 5 0.8   * 3.v.m   . 3 %.n 8 q 8 I.I.I.I.I.I.I.",
"I.I.I.I.I.6 0.F H 0.y.s e : @ 2 + , P R d.g.H 3.F X I.I.I.I.I.I.",
"I.I.I.I.I.c k.d.e.v.S.N ! ! Y U T ~ Q z G.b.s.k.L o I.I.I.I.I.I.",
"I.I.I.I.I.; D S.y.l.h.s E I W ^ ^ I P i z.s.N.<.6 I.I.I.I.I.I.I.",
"I.I.I.I.I.I.- V S p.C y o.f w : > y #.7.V A X.l 1 I.I.I.I.I.I.I.",
"I.I.I.I.I.I.I.# _ | [ l 1.X.k   O j <.O.j &.,.( o I.I.I.I.I.I.I.",
"I.I.I.I.I.I.I.I.r *.;.} [ [ [ O < ) { } &.=.( 1 I.I.I.I.I.I.I.I.",
"I.I.I.I.I.I.I.I.I.< ` :.;.:.&.O r >.:.,.-.t I.I.I.I.I.I.I.I.I.I.",
"I.I.I.I.I.I.I.I.I.I.4 *.>.;.j   # ( *._ t I.I.I.I.I.I.I.I.I.I.I.",
"I.I.I.I.I.I.I.I.I.I.I.< t 4 O I.I.I.$ O I.I.I.I.I.I.I.I.I.I.I.I.",
"I.I.I.I.I.I.I.I.I.I.I.I.I.I.I.I.I.I.I.I.I.I.I.I.I.I.I.I.I.I.I.I.",
"I.I.I.I.I.I.I.I.I.I.I.I.I.I.I.I.I.I.I.I.I.I.I.I.I.I.I.I.I.I.I.I.",
"I.I.I.I.I.I.I.I.I.I.I.I.I.I.I.I.I.I.I.I.I.I.I.I.I.I.I.I.I.I.I.I.",
"I.I.I.I.I.I.I.I.I.I.I.I.I.I.I.I.I.I.I.I.I.I.I.I.I.I.I.I.I.I.I.I.",
"I.I.I.I.I.I.I.I.I.I.I.I.I.I.I.I.I.I.I.I.I.I.I.I.I.I.I.I.I.I.I.I."
};
