/* XPM */
static char *looking_right[] = {
/* columns rows colors chars-per-pixel */
"32 32 159 2 ",
"   c #010101",
".  c #090702",
"X  c #0E0D09",
"o  c #1A0708",
"O  c #110C04",
"+  c #161005",
"@  c #161616",
"#  c #1C1E1C",
"$  c #200603",
"%  c #2E0901",
"&  c #230E03",
"*  c #330901",
"=  c #251A08",
"-  c #2B1E09",
";  c #271908",
":  c #2C1B1A",
">  c #35250A",
",  c #39270A",
"<  c #3C2A0A",
"1  c #212121",
"2  c #282728",
"3  c #2D2C2C",
"4  c #302827",
"5  c #353534",
"6  c #3C3C3C",
"7  c #4C0C01",
"8  c #510D00",
"9  c #5F1E13",
"0  c #640F01",
"q  c #6D1907",
"w  c #761704",
"e  c #7C1B0E",
"r  c #412D0C",
"t  c #552307",
"y  c #4F350E",
"u  c #563C10",
"i  c #79250A",
"p  c #602510",
"a  c #6A2115",
"s  c #442E2D",
"d  c #5C2D27",
"f  c #493931",
"g  c #652924",
"h  c #692E22",
"j  c #772E2A",
"k  c #742D22",
"l  c #3F403F",
"z  c #6E4B15",
"x  c #734F15",
"c  c #7C5316",
"v  c #7A5624",
"b  c #775F36",
"n  c #434343",
"m  c #4B4C4B",
"M  c #5B4947",
"N  c #4F514F",
"B  c #56514E",
"V  c #535253",
"C  c #575B5C",
"Z  c #5D5D5D",
"A  c #5B5252",
"S  c #6E5753",
"D  c #736356",
"F  c #656564",
"G  c #6B6B6B",
"H  c #746D6B",
"J  c #7A6664",
"K  c #706F70",
"L  c #757575",
"P  c #797A79",
"I  c #961D06",
"U  c #A71B02",
"Y  c #BB1B05",
"T  c #A3260F",
"R  c #AD2716",
"E  c #AE2D1A",
"W  c #B12B17",
"Q  c #C21D06",
"!  c #9E5C17",
"~  c #91591A",
"^  c #96661B",
"/  c #A26E1C",
"(  c #B67C1F",
")  c #B87C1E",
"_  c #805C26",
"`  c #8E423C",
"'  c #9F5D55",
"]  c #AD4C41",
"[  c #9A635C",
"{  c #8D7A58",
"}  c #9C6C6A",
"|  c #8E7570",
" . c #897D7D",
".. c #9F7D7A",
"X. c #9F7B76",
"o. c #AD6C67",
"O. c #B8716C",
"+. c #A87F7E",
"@. c #A77D7B",
"#. c #BC8021",
"$. c #C18222",
"%. c #CA8923",
"&. c #D38F25",
"*. c #DF9827",
"=. c #D49126",
"-. c #EA9F27",
";. c #EB9E29",
":. c #E49B27",
">. c #EBA027",
",. c #ECA029",
"<. c #F3A32A",
"1. c #7F7E80",
"2. c #838383",
"3. c #888788",
"4. c #8E8E8E",
"5. c #908D8C",
"6. c #958F90",
"7. c #949494",
"8. c #969897",
"9. c #959898",
"0. c #9B9C9B",
"q. c #B48D89",
"w. c #A7918F",
"e. c #A79B99",
"r. c #A49395",
"t. c #A09EA0",
"y. c #9FA1A1",
"u. c #A3A3A4",
"i. c #AAA4A3",
"p. c #ACADAC",
"a. c #B4AFAF",
"s. c #B8A3A2",
"d. c #B1AFB0",
"f. c #AEB4B5",
"g. c #B4B4B4",
"h. c #BBBBBB",
"j. c #B9B3B3",
"k. c #C78A84",
"l. c #C79A96",
"z. c #C9ABA8",
"x. c #C4C4C4",
"c. c #C6C8C7",
"v. c #C8C7C8",
"b. c #CACACA",
"n. c #D7C1C0",
"m. c #D4CCCB",
"M. c #CFD0CF",
"N. c #D0CFD0",
"B. c #D3D4D3",
"V. c #DAD7D6",
"C. c #D9D7D9",
"Z. c #DBDCDB",
"A. c #DAE1E3",
"S. c #E5E4E5",
"D. c #E6EAE8",
"F. c #ECECEC",
"G. c #F4F4F4",
"H. c #FEFDFE",
"J. c None",
/* pixels */
"J.J.J.J.J.J.J.J.J.J.J.J.J.J.J.J.J.J.J.J.J.J.J.J.J.J.J.J.J.J.J.J.",
"J.J.J.J.J.J.J.J.J.J.J.J.J.J.J.J.J.J.J.J.J.J.J.J.J.J.J.J.J.J.J.J.",
"J.J.J.J.J.J.J.J.J.J.J.J.J.J.J.J.J.J.J.J.J.J.J.J.J.J.J.J.J.J.J.J.",
"J.J.J.J.J.J.J.J.J.J.J.J.J.J.J.J.J.J.J.J.J.J.J.J.J.J.J.J.J.J.J.J.",
"J.J.J.J.J.J.J.4 A 9 0 f n 5 1 J.J.J.J.J.J.J.J.J.J.J.J.J.J.J.J.J.",
"J.J.J.J.J.J.J.C +.Y W e.p.C.2.1 m m m 6 6 J.J.J.J.J.J.J.J.J.J.J.",
"J.J.J.J.J.J.J.C } Y E 6.A.H.M.M 4.0.7.4.4.P G N 5 J.J.J.J.J.J.J.",
"J.J.J.J.J.J.J.: s k a M s.l.[ g w.x.c.S.B.B.c.0.L Z J.J.J.J.J.J.",
"J.J.J.J.J.J.J.J.5 L y.X.e Y W ` ..D.b.d.b.c.H.H.v.3.K J.J.J.J.J.",
"J.J.J.J.J.J.J.J.Z 7.H.V.S q.z.m.J g.H.x.V.G.H.H.H.e.7.l J.J.J.J.",
"J.J.J.J.J.J.J.3 P 0.b.G. .} o.] j r.H.S.G.H.H.H.G.9.y.5 J.J.J.J.",
"J.J.J.J.J.3 8.0.N u.7.g.g.@.O.k.z.H.H.H.H.H.F.x.4.4.0.n J.J.J.J.",
"J.J.J.J.J.L Z.F l u.t.0.7.0.u.f.h.f.h.g.g.7.3.2.9.g.b.m J.J.J.J.",
"J.J.J.J.@ 0.M.6 @ d.B.h.d.u.y.9.9.7.7.8.7.8.p.p.u.C.v.3 J.J.J.J.",
"J.J.J.J.J.P Z.2.1 V V.Z.C.B.M.b.x.x.x.b.M.B.Z.t.n j.' I 8 J.J.J.",
"J.J.J.J.J.2 2.h.g.1.P B.Z.C.Z.b.h.M.x.x.B.Z.Z.u.l i.d q * J.J.J.",
"J.J.J.J.J.J.J.n Z V # Z h.Z.Z.h.p.p.v.0.d.h.c.d.K m J.J.J.J.J.J.",
"J.J.J.J.J.J.J.J.J.J.J.J.5 2.h.N.u.x.A.b.F.h.2.L 2 J.J.J.J.J.J.J.",
"J.J.J.J.J.J.J.J.J.J.J.J.  . @ 5 f n C G G m # X J.J.J.J.J.J.J.J.",
"J.J.J.J.J.J.J.J.J.J.J.                          J.J.J.J.J.J.J.J.",
"J.J.J.J.J.J.J.J.J.J.J.      V l .           % & r > J.J.J.J.J.J.",
"J.J.J.J.J.J.J.J.J.J.6 m 5 5 1.0.K o $ % 7 w q ! &.%.z . J.J.J.J.",
"J.J.J.J.J.J.J.J.J.G u.9.L 2.2.c.z.g T U I i ~ ;.<.<./ O J.J.J.J.",
"J.J.J.J.J.J.J.J.J.3 Z g.g.v.i.V.| h p t ~ ^ ) %.$.^ < J.J.J.J.J.",
"J.J.J.J.J.J.J.J.J.J.J.n G 8.B D K i.f = y r - = = J.J.J.J.J.J.J.",
"J.J.J.J.J.J.J.J.J.J.J.J.J.J.= v b { v z - J.J.J.J.J.J.J.J.J.J.J.",
"J.J.J.J.J.J.J.J.J.J.J.J.J.J.> / ( ) %.:.%./ u O J.J.J.J.J.J.J.J.",
"J.J.J.J.J.J.J.J.J.J.J.J.J.J.J., c #.>.;.;.<.&., J.J.J.J.J.J.J.J.",
"J.J.J.J.J.J.J.J.J.J.J.J.J.J.J.J.J.- ^ *.,.,.$.- J.J.J.J.J.J.J.J.",
"J.J.J.J.J.J.J.J.J.J.J.J.J.J.J.J.J.J.+ y c x , J.J.J.J.J.J.J.J.J.",
"J.J.J.J.J.J.J.J.J.J.J.J.J.J.J.J.J.J.J.J.J.J.J.J.J.J.J.J.J.J.J.J.",
"J.J.J.J.J.J.J.J.J.J.J.J.J.J.J.J.J.J.J.J.J.J.J.J.J.J.J.J.J.J.J.J."
};
