/* XPM */
static char *looking_left_bg[] = {
/* columns rows colors chars-per-pixel */
"32 32 188 2 ",
"   c #030202",
".  c #0D0302",
"X  c #0C0C0C",
"o  c #1D0501",
"O  c #0F100F",
"+  c #12170D",
"@  c #151515",
"#  c #220B03",
"$  c #18250C",
"%  c #23231F",
"&  c #333912",
"*  c #2B2B2A",
"=  c #353533",
"-  c #3A3A39",
";  c #4F1207",
":  c #421B10",
">  c #671809",
",  c #791B08",
"<  c #5B370F",
"1  c #503810",
"2  c #77240C",
"3  c #67370F",
"4  c #702210",
"5  c #4F3F3D",
"6  c #743931",
"7  c #39541B",
"8  c #454014",
"9  c #5C4918",
"0  c #54551A",
"q  c #5B5B1C",
"w  c #644412",
"e  c #654917",
"r  c #645B1A",
"t  c #795518",
"y  c #46611E",
"u  c #504429",
"i  c #425C23",
"p  c #4B4437",
"a  c #4B5B33",
"s  c #4C5B3C",
"d  c #674C33",
"f  c #586E22",
"g  c #4D7725",
"h  c #5A7424",
"j  c #587A27",
"k  c #4D6036",
"l  c #51643C",
"z  c #526839",
"x  c #5B7D37",
"c  c #6D6B20",
"v  c #766F21",
"b  c #767122",
"n  c #484848",
"m  c #535D48",
"M  c #565654",
"N  c #5C5D5A",
"B  c #74584F",
"V  c #566844",
"C  c #5C7148",
"Z  c #6E6A4C",
"A  c #606A55",
"S  c #656F59",
"D  c #7E645F",
"F  c #636363",
"G  c #686769",
"H  c #6B6B6B",
"J  c #6F7E60",
"K  c #777062",
"L  c #6F6F70",
"P  c #757475",
"I  c #78777A",
"U  c #7C7B7B",
"Y  c #8E1A08",
"T  c #902A19",
"R  c #863910",
"E  c #B4210C",
"W  c #92342A",
"Q  c #8F3F36",
"!  c #904312",
"~  c #88681D",
"^  c #95641A",
"/  c #9C6319",
"(  c #A46C1D",
")  c #AA701D",
"_  c #B97B1F",
"`  c #A44639",
"'  c #9A6F2A",
"]  c #904B40",
"[  c #90524E",
"{  c #A8564C",
"}  c #B45347",
"|  c #88605B",
" . c #887A78",
".. c #997D7B",
"X. c #B56B64",
"o. c #A37B77",
"O. c #B27E7A",
"+. c #5A862D",
"@. c #5C8334",
"#. c #678B2C",
"$. c #778D2C",
"%. c #60863A",
"&. c #648B3C",
"*. c #649335",
"=. c #669B33",
"-. c #6A9D33",
";. c #66933B",
":. c #749E31",
">. c #6BA434",
",. c #6EA936",
"<. c #6EA53A",
"1. c #6FA938",
"2. c #72A435",
"3. c #71AC37",
"4. c #71A53F",
"5. c #72AD39",
"6. c #72B037",
"7. c #75B339",
"8. c #79B63C",
"9. c #7BBC3C",
"0. c #7EC13E",
"q. c #638443",
"w. c #69834F",
"e. c #6C9842",
"r. c #6D8554",
"t. c #769555",
"y. c #72A740",
"u. c #75AC40",
"i. c #78A849",
"p. c #7AB242",
"a. c #7DB942",
"s. c #77836B",
"d. c #7A8072",
"f. c #C38222",
"g. c #CC8A24",
"h. c #D48F25",
"j. c #DE9626",
"k. c #E89E29",
"l. c #EEA12A",
"z. c #81C43F",
"x. c #83C93F",
"c. c #81BE45",
"v. c #9A817F",
"b. c #82C342",
"n. c #85CA41",
"m. c #88CA47",
"M. c #87C549",
"N. c #88D042",
"B. c #807E81",
"V. c #828283",
"C. c #898586",
"Z. c #8C8C8C",
"A. c #918482",
"S. c #8D9487",
"D. c #939394",
"F. c #9A9496",
"G. c #969498",
"H. c #9C9B9C",
"J. c #A88886",
"K. c #B98984",
"L. c #A9918D",
"P. c #A49796",
"I. c #A39D9D",
"U. c #B79895",
"Y. c #9FA09D",
"T. c #A3A2A3",
"R. c #A8A7A7",
"E. c #ACACAC",
"W. c #B5AFAE",
"Q. c #B3B3B3",
"!. c #B8B7B8",
"~. c #BCBBBB",
"^. c #C6B5B4",
"/. c #C5BFBE",
"(. c #D4B8B6",
"). c #BEBFC0",
"_. c #C0BFC0",
"`. c #C4C3C3",
"'. c #C9C6C6",
"]. c #CCCCCC",
"[. c #D3D3D4",
"{. c #DAD7D6",
"}. c #DBDBDB",
"|. c #E3E2E2",
" X c #EBE9E9",
".X c #F2EFEF",
"XX c #F3F3F3",
"oX c #FCFCFC",
/* pixels */
"i.4.u.p.p.y.u.u.y.u.p.a.a.p.u.u.p.p.c.M.M.M.c.a.a.p.u.4.4.u.5.y.",
"y.1.8.b.9.5.5.8.p.7.,.,.,.7.a.1.3.9.0.x.b.8.5.5.8.5.4.5.9.b.a.8.",
"p.5.5.9.7.7.a.n.b.9.,.,.7.0.7.3.9.z.0.5.3.-.-.-.2.-.=.>.0.x.x.0.",
"c.9.6.5.,.,.0.b.z.9.7.5.7.7.5.5.p.8.,.k s V m e e Z l @.7.0.0.0.",
"M.0.8.,.6.7.9.0.0.0.7.p.;.m C C C z a G F.F. .W E [ B x ,.3.6.6.",
"M.9.9.8.0.z.0.8.&.C w.r.s.P I d.U G M E. X[.L.` E { H q.,.,.>.1.",
"p.5.9.9.0.n.b.e.S H D.E.!.~.).!.E.A.B J.(.~. .6 T 6 p x 0.8.5.>.",
"y.7.0.b.0.b.i.s.Z.!.}.}.[.].`.[.'.v.Q ` } { | D B 5 a 2.0.0.7.,.",
"u.5.9.b.0.;.J Z.).XXoXXX}.`.`.}.^.A.O.X.} ] L.`.H.N q.0.7.9.6.,.",
"u.5.6.0.9.V I H.].oXoXoXXX}.|. XP.| K.K... .'. XE.I C *.6.7.,.7.",
"p.6.9.8.6.z I H.E.[..XoXoXXXXX.X^.o.X.X.o.P.'.).T.I F J q.*.9.z.",
"p.9.9.>.,.V C.R.G.Y.!.].{.|.|.|.{.^.U.K.J.I.R.Y.H.G L H.U q.x.N.",
"u.1.>.>.=.m G.`.E.G.G.G.Y.E.E.E.W.E.R.I.H.Y.T.E.R.N n Y.E.w.1.m.",
"y.1.3.3.#.u v./.E.H.E.Q.R.T.T.T.I.I.R.E.Q.!.).].R.n - H.!.A @.0.",
"u.5.9.9.w , Q L.U P ~.[.[.].`.`._._.'.].[.[.}.'.B.M L E.G.w.,.6.",
"u.5.7.8.0 < e K L U `.[.[.`.).`.`.).`.{.}.}.~.B.H V.G.S.A x ,.6.",
"7.,.9.0.:.:.3.q.N V.Q.~.`.~.!.'.!.Q.`.[.].E.d.s m S S q.=.>.6.9.",
"p.9.9.,.3.9.7.-.z M P D.!.`.~.~.E.I.Q.R.U V %.<.=.;.=.>.6.a.z.n.",
"u.6.,.=.-.>.>.>.>.i % - F P H F M n n * @ + g 7.1.,.,.7.7.0.n.N.",
"y.>.=.>.-.-.>.=.=.7   X X @ @ X X X O .     $ =.0.8.7.7.7.7.8.9.",
"e.>.,.7.6.=.=.f 9 & # o .         @ = = X   + j 7.7.,.,.,.6.,.6.",
"u.>.7.0.7.i 0 ~ ( ^ 3 ; ; # # # % M U L = * = m =.,.>.,.9.0.9.7.",
"a.6.5.9.,.& w f.k.j._ R Y , , > 6 P.Q.Z.L H I U J e.,.1.0.x.n.z.",
"M.9.3.3.>.j q ^ f.h._ / ! R 2 4 6 L._.R.E.I.T.C.M %.1.,.7.8.0.9.",
"M.b.8.3.7.9.=.$.c w w w w < : d | ..Z.d.Y.Z.I r.*.p.7.,.,.,.6.6.",
"M.6.8.8.0.x.0.9.=.f f j q & < Z v.K d p t.i.e.6.0.0.7.6.3.3.>.,.",
"u.5.9.0.0.0.0.0.7.#.h $.~ ~ ( ' ' ' t 8 8.m.0.8.9.0.9.7.9.9.3.>.",
"u.8.9.b.0.0.0.9.6.y 1 ( h.j.l.g.f.^ t h 9.0.7.9.9.0.0.0.0.0.7.3.",
"8.3.7.z.0.0.0.9.9.y t j.l.l.j.f.v c h 9.9.8.0.9.0.0.9.9.7.7.7.6.",
"u.3.7.0.0.9.0.0.6.+.r ) f.f.^ w f >.6.9.7.0.x.x.0.9.7.6.3.,.,.7.",
"p.8.9.7.7.9.9.6.6.>.h r c b q y 6.9.9.6.a.0.9.0.7.7.,.,.,.5.9.z.",
"p.9.6.>.,.6.,.>.,.6.>.=.=.,.6.6.6.9.9.6.,.,.6.7.,.,.,.6.6.9.x.N."
};
