/* XPM */
static char *open_door[] = {
/* columns rows colors chars-per-pixel */
"13 32 130 2 ",
"   c #512900",
".  c #542B00",
"X  c #552B00",
"o  c #562C00",
"O  c #572C00",
"+  c #582D00",
"@  c #592D00",
"#  c #582E00",
"$  c #592E00",
"%  c #5A2E00",
"&  c #532C08",
"*  c #532C09",
"=  c #542C08",
"-  c #542D08",
";  c #562E08",
":  c #572E08",
">  c #542D0A",
",  c #572F0D",
"<  c #5D3000",
"1  c #5F3205",
"2  c #593108",
"3  c #5B300B",
"4  c #5C310A",
"5  c #5C310B",
"6  c #422615",
"7  c #412617",
"8  c #402519",
"9  c #43271A",
"0  c #532F15",
"q  c #613200",
"w  c #633300",
"e  c #633301",
"r  c #613202",
"t  c #643300",
"y  c #643301",
"u  c #613600",
"i  c #653400",
"p  c #663400",
"a  c #653402",
"s  c #623306",
"d  c #663507",
"f  c #683500",
"g  c #6B3701",
"h  c #683602",
"j  c #693602",
"k  c #6B3702",
"l  c #6D3800",
"z  c #6D3801",
"x  c #6E3901",
"c  c #6F3902",
"v  c #6E3906",
"b  c #623408",
"n  c #633408",
"m  c #623409",
"M  c #693C0E",
"N  c #703A03",
"B  c #703A04",
"V  c #703A05",
"C  c #723B04",
"Z  c #733C04",
"A  c #733C05",
"S  c #743C05",
"D  c #743D06",
"F  c #753D07",
"G  c #743D08",
"H  c #763E08",
"J  c #773E08",
"K  c #773F08",
"L  c #773F09",
"P  c #783F09",
"I  c #623511",
"U  c #6A3D16",
"Y  c #6C3C18",
"T  c #703D15",
"R  c #713E1A",
"E  c #723F1A",
"W  c #733F1A",
"Q  c #733F1B",
"!  c #6F4506",
"~  c #684208",
"^  c #76400A",
"/  c #79400B",
"(  c #7A400B",
")  c #7A410B",
"_  c #7F460B",
"`  c #7A410D",
"'  c #7C420C",
"]  c #7C420D",
"[  c #7D420D",
"{  c #7C420E",
"}  c #7D420E",
"|  c #7E430F",
" . c #7F460C",
".. c #7F470C",
"X. c #7F440F",
"o. c #75490A",
"O. c #7E4311",
"+. c #7F4410",
"@. c #7F4411",
"#. c #74401A",
"$. c #75401B",
"%. c #80450D",
"&. c #80460D",
"*. c #80460E",
"=. c #81470E",
"-. c #814612",
";. c #814613",
":. c #824613",
">. c #834613",
",. c #936917",
"<. c #946B17",
"1. c #966A1D",
"2. c #986D19",
"3. c #996F1B",
"4. c #9A6F1A",
"5. c #A1741E",
"6. c #9F5E24",
"7. c #925828",
"8. c #A25B25",
"9. c #A65D2C",
"0. c #A75E2C",
"q. c #A85F2D",
"w. c #A95F2D",
"e. c #A9602D",
"r. c #AE642C",
"t. c #B06B2B",
"y. c #B0692C",
"u. c #B1692D",
"i. c #B16A2D",
"p. c None",
/* pixels */
"p.Y I p.p.p.p.p.p.p.p.p.p.",
"p.7.8.T p.p.p.p.p.p.p.p.p.",
"p.U y.e.#.p.p.p.p.p.p.p.p.",
"p.: &.y.e.#.p.p.p.p.p.p.p.",
"p.: f *.y.w.#.p.p.p.p.p.p.",
"p.:   w =.y.0.E p.p.p.p.p.",
"p.* . % p X.r.0.E p.p.p.p.",
"p.: o g C l X.r.0.#.p.p.p.",
"p.: . l X.< w _ t.6.0 p.p.",
"p.* o l O.% . p ..M 6 p.p.",
"p.: o v X.o r p C 5 6 p.p.",
"p.2 d N X.% p / L 5 8 p.p.",
"p.1.^ / O.% w { / 2 6 p.p.",
"3.5.o.O.O.o p { P 5 8 p.p.",
"3.3.! ` =.% p { P 5 6 p.p.",
"<.<.w w L % w { P 5 6 p.p.",
"p.~ o < p f B { / 5 6 p.p.",
"p.* o l L l / -.K 5 8 p.p.",
"p.* o l O.% r X.F 5 8 p.p.",
"p.: o l O.% o r F 5 6 p.p.",
"p.* o v O.% r f Z 5 6 p.p.",
"p.* o l { % p { F 5 6 p.p.",
"p.* % l O.% p { P 5 8 p.p.",
"p.* v L O.% p { P 2 6 p.p.",
"p.p.m X.-.o p X.P 5 6 p.p.",
"p.p.p.m / % p ` P 5 8 p.p.",
"p.p.p.p.1 p g ` L 2 8 p.p.",
"p.p.p.p.p.m / O./ 5 6 p.p.",
"p.p.p.p.p.p.m =./ 3 8 p.p.",
"p.p.p.p.p.p.p.m C 3 6 p.p.",
"p.p.p.p.p.p.p.p.n 3 8 p.p.",
"p.p.p.p.p.p.p.p.p.8 p.p.p."
};
