/* XPM */
static char *floor[] = {
/* columns rows colors chars-per-pixel */
"32 32 100 2 ",
"   c #1D313B",
".  c #22343E",
"X  c #2D363D",
"o  c #2E393F",
"O  c #333537",
"+  c #323739",
"@  c #333A3D",
"#  c #3C3B3B",
"$  c #403C3A",
"%  c #0D374E",
"&  c #0D384F",
"*  c #173546",
"=  c #1C3543",
"-  c #153649",
";  c #13394E",
":  c #1B3C4E",
">  c #093750",
",  c #063956",
"<  c #0C3A53",
"1  c #063C5A",
"2  c #083C5A",
"3  c #143D54",
"4  c #213643",
"5  c #243945",
"6  c #2D3940",
"7  c #313A40",
"8  c #393E40",
"9  c #0E405B",
"0  c #154056",
"q  c #194055",
"w  c #15435C",
"e  c #18425A",
"r  c #024164",
"t  c #0C4564",
"y  c #024569",
"u  c #01496E",
"i  c #0C4969",
"p  c #144461",
"a  c #144865",
"s  c #194B66",
"d  c #014D74",
"f  c #035077",
"g  c #04537C",
"h  c #09557E",
"j  c #055680",
"k  c #085681",
"l  c #065A84",
"z  c #0B5A83",
"x  c #075D89",
"c  c #095E8B",
"v  c #07618E",
"b  c #0A608D",
"n  c #056595",
"m  c #0B6593",
"M  c #0B6897",
"N  c #0C6B9C",
"B  c #116795",
"V  c #10689A",
"C  c #1E6999",
"Z  c #0E6EA0",
"A  c #0F72A4",
"S  c #0F76A9",
"D  c #0F78AC",
"F  c #1172A5",
"G  c #1176AA",
"H  c #1E75AC",
"J  c #1179AE",
"K  c #1878AF",
"L  c #147CB3",
"P  c #1E7DB7",
"I  c #167FB8",
"U  c #2077AF",
"Y  c #217AB4",
"T  c #237FBB",
"R  c #1480B7",
"E  c #1681B9",
"W  c #1982BC",
"Q  c #2481BE",
"!  c #1B85C2",
"~  c #1E89C6",
"^  c #1E85C8",
"/  c #1F8BCA",
"(  c #238CCC",
")  c #288BCE",
"_  c #238FD0",
"`  c #298FD2",
"'  c #2491D4",
"]  c #2A91D5",
"[  c #2594D8",
"{  c #2A95DA",
"}  c #2798DE",
"|  c #2A98DE",
" . c #2C9BE4",
".. c #2E9EE9",
"X. c #309FEA",
"o. c #2FA0EA",
"O. c #31A1ED",
"+. c #32A5F3",
"@. c #34A8F7",
"#. c #36ABFB",
/* pixels */
"@ @ # # # 7 7 7 o o o @ 7 7 @ 6 @ 7 6 @ # # $ @ 6 6 @ 7 @ 7 7 7 ",
"5 = = = = 5 = . $ $ # = 5 = 5 = = 5 5 = = = = . # # # . = = = 5 ",
"r r r r r d B h . @ ; r r r y r r r r r r y b b s @ 5 r y r y y ",
"N N N N b h W N * @ < d f f d d M Z N N M f L L f @ - d d d d u ",
"N F m R F M W E = + < d u d M Z D b J b J m G S d @ - u d u m M ",
"N A M J J S ~ ) * @ < d f N J b G M G m L [ I / h @ - u f m b G ",
"J J L D W ! ! )   @ < f N R S m J L J D D ~ I ..h @ - u d A M A ",
"J J D A (  .! ) * @ > g J b J L J D D ' _ A J  .k @ - u m L L L ",
"L D L ! R W W )   @ & g Z d J J D L ' ' ' ' L  .h @ - d n b A L ",
"D L | O.~ J | ) = @ > l J M J J D J / A J ^ L  .h @ - u y l S J ",
"R ' | O.! W #.)   @ < f m J J D L / G ( L ! L  .k @ - u m L L J ",
"[ ! L ( G ' +.) * @ > f m J S L _ ' ' ' _ _ _  .h @ - u v G S J ",
"W J W G ' O.+.(   @ 9 v M J ~ L / S / S ( ^ +...h @ * z l S / J ",
"_  .O.| #.@.#.) * o t J b W ' R ( ' ( _ _ @.@.+.j @ - G E L [ [ ",
"Y Y U U Y U Y C . + q N Z n n Z ! ^ ^ ^ ^ ! ! ! s @ 5 z b c l H ",
"          .   . $ $ 8 e w w w w 0 0 0 0 0 3 3 q # $ $ .   = .   ",
"@ o @ o 6 @ o 6 o 6 X O $ $ # + @ @ o @ + @ o @ 6 X o # $ $ @ 6 ",
"1 1 , 1 , 1 1 , 1 , 1 a @ # 5 1 1 1 , , 1 1 , , , i i 5 # o < 1 ",
"d f l d l u f h d l v A * @ & d d d x x d u l l l L ! 9 + - d d ",
"d v M b N g v K V L ~ K - + < u d l N N l l J ! L D  .p + - u d ",
"M Z l M x R E W [ J o.] * @ < d x J h g J L ! | L W  .p + - u d ",
"J L N x J !  .F J E / ] * @ & f Z J L ! D J ' L I +.O.w + - u h ",
"D L E L L E [ I ~ O.@.` * @ < u j S J [ W E I W .. ...p + - u Z ",
"D / ..( o.R ( @.@.+.#.] * @ > x L ! W ! +.@.+.@.+.! ..p + - f D ",
"N K [ ` ` ] [ ` ] ] { Q = # 3 N F ] ] ] ] ` ` ` ` ] ` e + = B A ",
"- * - - - - = - - * * = # # # - = - - - - - - - - - - # $ # = - ",
"+ # # # # + 7 # @ @ # + @ @ + @ 8 @ @ @ # # # @ @ + @ @ + @ @ @ ",
"< : # # 6 < < < % % < < < & 3 % ; & < 3 7 # @ ; 3 % % % 3 < % 3 ",
"m M = @ , d d f h d l A d j F g d g G G ; @ ; u d d f d A g f Z ",
"_ T   @ , d l P ' G J J J J I { L J W { 3 # ; u f A J L J L J J ",
"+.(   6 1 x L L L !  .J !  .I I I X.+. .3 + ; f G I I  .!  .W L ",
"@.Y   @ t D P ......O.....O.X.{ I X.+.{ 3 + ; N L  .X.X...X....."
};
